solid testprint
facet normal -1.4438412152325469e-18 2.096372483959169e-17 -1.0
  outer loop
    vertex 10.0 40.0 1.762479051592436e-15
    vertex 0.0 0.0 0.0
    vertex 0.0 40.0 0.0
  endloop
endfacet
facet normal -1.4438412152325469e-18 2.096372483959169e-17 -1.0
  outer loop
    vertex 0.0 0.0 0.0
    vertex 10.0 40.0 1.762479051592436e-15
    vertex 10.0 30.0 1.762479051592436e-15
  endloop
endfacet
facet normal -1.4438412152325469e-18 2.096372483959169e-17 -1.0
  outer loop
    vertex 0.0 0.0 0.0
    vertex 10.0 30.0 1.762479051592436e-15
    vertex 20.0 20.0 0.0
  endloop
endfacet
facet normal -1.4438412152325469e-18 2.096372483959169e-17 -1.0
  outer loop
    vertex 0.0 0.0 0.0
    vertex 20.0 20.0 0.0
    vertex 40.0 0.0 0.0
  endloop
endfacet
facet normal -1.4438412152325469e-18 2.096372483959169e-17 -1.0
  outer loop
    vertex 20.0 20.0 0.0
    vertex 10.0 30.0 1.762479051592436e-15
    vertex 20.0 30.0 1.762479051592436e-15
  endloop
endfacet
facet normal -1.4438412152325469e-18 2.096372483959169e-17 -1.0
  outer loop
    vertex 40.0 0.0 0.0
    vertex 20.0 20.0 0.0
    vertex 31.64999999999998 9.999999999999998 0.0
  endloop
endfacet
facet normal -1.4438412152325469e-18 2.096372483959169e-17 -1.0
  outer loop
    vertex 31.64999999999998 9.999999999999998 0.0
    vertex 20.0 20.0 0.0
    vertex 31.64999999999998 20.0 0.0
  endloop
endfacet
facet normal -1.4438412152325469e-18 2.096372483959169e-17 -1.0
  outer loop
    vertex 40.0 0.0 0.0
    vertex 31.64999999999998 9.999999999999998 0.0
    vertex 40.0 10.0 0.0
  endloop
endfacet
facet normal -0.0 1.0 -0.0
  outer loop
    vertex 0.0 40.0 10.0
    vertex 10.0 40.0 1.762479051592436e-15
    vertex 0.0 40.0 0.0
  endloop
endfacet
facet normal -0.0 1.0 -0.0
  outer loop
    vertex 10.0 40.0 1.762479051592436e-15
    vertex 0.0 40.0 10.0
    vertex 10.0 40.0 10.0
  endloop
endfacet
facet normal -7.049916206369743e-17 1.0 -0.0
  outer loop
    vertex 31.64999999999998 9.999999999999998 5.0
    vertex 40.0 10.0 0.0
    vertex 31.64999999999998 9.999999999999998 0.0
  endloop
endfacet
facet normal -7.049916206369743e-17 1.0 -0.0
  outer loop
    vertex 40.0 10.0 0.0
    vertex 31.64999999999998 9.999999999999998 5.0
    vertex 40.0 10.0 10.0
  endloop
endfacet
facet normal -7.049916206369743e-17 1.0 -0.0
  outer loop
    vertex 40.0 10.0 10.0
    vertex 31.64999999999998 9.999999999999998 5.0
    vertex 31.64999999999998 9.999999999999998 10.0
  endloop
endfacet
facet normal 1.0 0.0 0.0
  outer loop
    vertex 40.0 10.0 0.0
    vertex 40.0 0.0 10.0
    vertex 40.0 0.0 0.0
  endloop
endfacet
facet normal 1.0 0.0 0.0
  outer loop
    vertex 40.0 0.0 10.0
    vertex 40.0 10.0 0.0
    vertex 40.0 10.0 10.0
  endloop
endfacet
facet normal 1.672043980530113e-17 -1.0 -1.2990495541041627e-16
  outer loop
    vertex 40.0 0.0 10.0
    vertex 0.0 0.0 0.0
    vertex 40.0 0.0 0.0
  endloop
endfacet
facet normal 1.672043980530113e-17 -1.0 -1.2990495541041627e-16
  outer loop
    vertex 0.0 0.0 0.0
    vertex 40.0 0.0 10.0
    vertex 20.0 0.0 10.0
  endloop
endfacet
facet normal 1.672043980530113e-17 -1.0 -1.2990495541041627e-16
  outer loop
    vertex 0.0 0.0 0.0
    vertex 20.0 0.0 10.0
    vertex -2.8199664825478975e-15 -5.639932965095795e-15 39.99999999999999
  endloop
endfacet
facet normal 1.672043980530113e-17 -1.0 -1.2990495541041627e-16
  outer loop
    vertex 20.0 0.0 10.0
    vertex 40.0 0.0 10.0
    vertex 30.0 -1.4099832412739487e-15 10.0
  endloop
endfacet
facet normal 1.672043980530113e-17 -1.0 -1.2990495541041627e-16
  outer loop
    vertex -2.8199664825478975e-15 -5.639932965095795e-15 39.99999999999999
    vertex 20.0 0.0 10.0
    vertex 10.0 -2.8199664825478975e-15 30.0
  endloop
endfacet
facet normal 1.672043980530113e-17 -1.0 -1.2990495541041627e-16
  outer loop
    vertex 10.0 -2.8199664825478975e-15 30.0
    vertex 20.0 0.0 10.0
    vertex 20.0 -2.8199664825478975e-15 29.999999999999996
  endloop
endfacet
facet normal 1.672043980530113e-17 -1.0 -1.2990495541041627e-16
  outer loop
    vertex -2.8199664825478975e-15 -5.639932965095795e-15 39.99999999999999
    vertex 10.0 -2.8199664825478975e-15 30.0
    vertex 9.999999999999996 -5.639932965095795e-15 40.0
  endloop
endfacet
facet normal -1.0 0.0 0.0
  outer loop
    vertex -2.8199664825478975e-15 9.999999999999993 40.0
    vertex 0.0 0.0 0.0
    vertex -2.8199664825478975e-15 -5.639932965095795e-15 39.99999999999999
  endloop
endfacet
facet normal -1.0 0.0 0.0
  outer loop
    vertex 0.0 0.0 0.0
    vertex -2.8199664825478975e-15 9.999999999999993 40.0
    vertex 0.0 9.999999999999998 20.0
  endloop
endfacet
facet normal -1.0 0.0 0.0
  outer loop
    vertex 0.0 0.0 0.0
    vertex 0.0 9.999999999999998 20.0
    vertex 0.0 20.0 10.0
  endloop
endfacet
facet normal -1.0 0.0 0.0
  outer loop
    vertex 0.0 0.0 0.0
    vertex 0.0 20.0 10.0
    vertex 0.0 40.0 0.0
  endloop
endfacet
facet normal -1.0 0.0 0.0
  outer loop
    vertex 0.0 20.0 10.0
    vertex 0.0 9.999999999999998 20.0
    vertex 0.0 20.0 20.0
  endloop
endfacet
facet normal -1.0 0.0 0.0
  outer loop
    vertex 0.0 40.0 0.0
    vertex 0.0 20.0 10.0
    vertex 0.0 40.0 10.0
  endloop
endfacet
facet normal 7.049916206369743e-17 2.6532096899782937e-32 1.0
  outer loop
    vertex 28.000000000000004 1.9999999999999973 9.999999999999998
    vertex 28.0 7.292893218813451 9.999999999999998
    vertex 28.0 2.707106781186547 9.999999999999998
  endloop
endfacet
facet normal 7.049916206369743e-17 2.6532096899782937e-32 1.0
  outer loop
    vertex 28.0 7.292893218813451 9.999999999999998
    vertex 28.000000000000004 1.9999999999999973 9.999999999999998
    vertex 28.0 7.999999999999999 10.0
  endloop
endfacet
facet normal 7.049916206369743e-17 2.6532096899782937e-32 1.0
  outer loop
    vertex 20.0 0.0 10.0
    vertex 22.0 1.9999999999999991 9.999999999999998
    vertex 20.0 9.999999999999998 10.0
  endloop
endfacet
facet normal 7.049916206369743e-17 2.6532096899782937e-32 1.0
  outer loop
    vertex 22.0 1.9999999999999991 9.999999999999998
    vertex 20.0 0.0 10.0
    vertex 30.0 -1.4099832412739487e-15 10.0
  endloop
endfacet
facet normal 7.049916206369743e-17 2.6532096899782937e-32 1.0
  outer loop
    vertex 22.0 1.9999999999999991 9.999999999999998
    vertex 30.0 -1.4099832412739487e-15 10.0
    vertex 22.70710678118655 1.9999999999999991 9.999999999999998
  endloop
endfacet
facet normal 7.049916206369743e-17 2.6532096899782937e-32 1.0
  outer loop
    vertex 22.70710678118655 1.9999999999999991 9.999999999999998
    vertex 30.0 -1.4099832412739487e-15 10.0
    vertex 27.292893218813457 1.9999999999999984 9.999999999999998
  endloop
endfacet
facet normal 7.049916206369743e-17 2.6532096899782937e-32 1.0
  outer loop
    vertex 27.292893218813457 1.9999999999999984 9.999999999999998
    vertex 30.0 -1.4099832412739487e-15 10.0
    vertex 28.000000000000004 1.9999999999999973 9.999999999999998
  endloop
endfacet
facet normal 7.049916206369743e-17 2.6532096899782937e-32 1.0
  outer loop
    vertex 20.0 9.999999999999998 10.0
    vertex 22.0 7.999999999999999 10.0
    vertex 30.0 9.999999999999998 10.0
  endloop
endfacet
facet normal 7.049916206369743e-17 2.6532096899782937e-32 1.0
  outer loop
    vertex 22.0 7.999999999999999 10.0
    vertex 20.0 9.999999999999998 10.0
    vertex 22.0 1.9999999999999991 9.999999999999998
  endloop
endfacet
facet normal 7.049916206369743e-17 2.6532096899782937e-32 1.0
  outer loop
    vertex 22.0 7.999999999999999 10.0
    vertex 22.0 1.9999999999999991 9.999999999999998
    vertex 22.0 2.7071067811865444 9.999999999999998
  endloop
endfacet
facet normal 7.049916206369743e-17 2.6532096899782937e-32 1.0
  outer loop
    vertex 22.0 7.999999999999999 10.0
    vertex 22.0 2.7071067811865444 9.999999999999998
    vertex 22.0 7.292893218813453 9.999999999999998
  endloop
endfacet
facet normal 7.049916206369743e-17 2.6532096899782937e-32 1.0
  outer loop
    vertex 30.0 9.999999999999998 10.0
    vertex 22.0 7.999999999999999 10.0
    vertex 22.70710678118655 7.999999999999999 9.999999999999998
  endloop
endfacet
facet normal 7.049916206369743e-17 2.6532096899782937e-32 1.0
  outer loop
    vertex 30.0 9.999999999999998 10.0
    vertex 22.70710678118655 7.999999999999999 9.999999999999998
    vertex 27.292893218813457 7.999999999999999 9.999999999999998
  endloop
endfacet
facet normal 7.049916206369743e-17 2.6532096899782937e-32 1.0
  outer loop
    vertex 30.0 9.999999999999998 10.0
    vertex 27.292893218813457 7.999999999999999 9.999999999999998
    vertex 28.0 7.999999999999999 10.0
  endloop
endfacet
facet normal 7.049916206369743e-17 2.6532096899782937e-32 1.0
  outer loop
    vertex 30.0 9.999999999999998 10.0
    vertex 28.0 7.999999999999999 10.0
    vertex 28.000000000000004 1.9999999999999973 9.999999999999998
  endloop
endfacet
facet normal 7.049916206369743e-17 2.6532096899782937e-32 1.0
  outer loop
    vertex 30.0 9.999999999999998 10.0
    vertex 28.000000000000004 1.9999999999999973 9.999999999999998
    vertex 30.0 -1.4099832412739487e-15 10.0
  endloop
endfacet
facet normal 7.049916206369743e-17 2.6532096899782937e-32 1.0
  outer loop
    vertex 30.0 9.999999999999998 10.0
    vertex 30.0 -1.4099832412739487e-15 10.0
    vertex 30.0 4.5 9.999999999999998
  endloop
endfacet
facet normal 7.049916206369743e-17 2.6532096899782937e-32 1.0
  outer loop
    vertex 30.0 9.999999999999998 10.0
    vertex 30.0 4.5 9.999999999999998
    vertex 30.0 5.500000000000001 9.999999999999998
  endloop
endfacet
facet normal -0.0 1.0 -0.0
  outer loop
    vertex 0.0 20.0 20.0
    vertex 20.0 20.0 10.0
    vertex 0.0 20.0 10.0
  endloop
endfacet
facet normal -0.0 1.0 -0.0
  outer loop
    vertex 20.0 20.0 10.0
    vertex 0.0 20.0 20.0
    vertex 10.0 20.0 15.0
  endloop
endfacet
facet normal -0.0 1.0 -0.0
  outer loop
    vertex 10.0 20.0 15.0
    vertex 0.0 20.0 20.0
    vertex 10.0 20.0 20.0
  endloop
endfacet
facet normal -0.0 1.0 -0.0
  outer loop
    vertex 20.0 20.0 15.0
    vertex 20.0 20.0 10.0
    vertex 10.0 20.0 15.0
  endloop
endfacet
facet normal 2.819966482547897e-16 -2.8199664825478977e-16 1.0
  outer loop
    vertex 20.0 -2.8199664825478975e-15 29.999999999999996
    vertex 10.0 9.999999999999996 30.0
    vertex 10.0 -2.8199664825478975e-15 30.0
  endloop
endfacet
facet normal 2.819966482547897e-16 -2.8199664825478977e-16 1.0
  outer loop
    vertex 10.0 9.999999999999996 30.0
    vertex 20.0 -2.8199664825478975e-15 29.999999999999996
    vertex 20.0 9.999999999999996 30.0
  endloop
endfacet
facet normal -0.0 1.0 2.819966482547897e-16
  outer loop
    vertex -2.8199664825478975e-15 9.999999999999993 40.0
    vertex 10.0 9.999999999999998 20.0
    vertex 0.0 9.999999999999998 20.0
  endloop
endfacet
facet normal -0.0 1.0 2.819966482547897e-16
  outer loop
    vertex 10.0 9.999999999999998 20.0
    vertex -2.8199664825478975e-15 9.999999999999993 40.0
    vertex 10.0 9.999999999999996 30.0
  endloop
endfacet
facet normal -0.0 1.0 2.819966482547897e-16
  outer loop
    vertex 10.0 9.999999999999996 30.0
    vertex -2.8199664825478975e-15 9.999999999999993 40.0
    vertex 9.999999999999996 9.999999999999993 40.0
  endloop
endfacet
facet normal -0.0 1.0 2.819966482547897e-16
  outer loop
    vertex 10.0 9.999999999999998 20.0
    vertex 20.0 9.999999999999998 15.0
    vertex 10.0 9.999999999999998 15.0
  endloop
endfacet
facet normal -0.0 1.0 2.819966482547897e-16
  outer loop
    vertex 20.0 9.999999999999998 15.0
    vertex 10.0 9.999999999999998 20.0
    vertex 20.0 9.999999999999996 30.0
  endloop
endfacet
facet normal -0.0 1.0 2.819966482547897e-16
  outer loop
    vertex 20.0 9.999999999999996 30.0
    vertex 10.0 9.999999999999998 20.0
    vertex 10.0 9.999999999999996 30.0
  endloop
endfacet
facet normal -2.8199664825478977e-16 -2.8199664825478977e-16 1.0
  outer loop
    vertex -2.8199664825478975e-15 -5.639932965095795e-15 39.99999999999999
    vertex 1.9999999999999967 1.9999999999999942 39.99999999999999
    vertex -2.8199664825478975e-15 9.999999999999993 40.0
  endloop
endfacet
facet normal -2.8199664825478977e-16 -2.8199664825478977e-16 1.0
  outer loop
    vertex 1.9999999999999967 1.9999999999999942 39.99999999999999
    vertex -2.8199664825478975e-15 -5.639932965095795e-15 39.99999999999999
    vertex 9.999999999999996 -5.639932965095795e-15 40.0
  endloop
endfacet
facet normal -2.8199664825478977e-16 -2.8199664825478977e-16 1.0
  outer loop
    vertex -2.8199664825478975e-15 9.999999999999993 40.0
    vertex 1.9999999999999967 1.9999999999999942 39.99999999999999
    vertex 1.9999999999999962 6.999999999999994 39.99999999999999
  endloop
endfacet
facet normal -2.8199664825478977e-16 -2.8199664825478977e-16 1.0
  outer loop
    vertex 1.9999999999999967 1.9999999999999942 39.99999999999999
    vertex 9.999999999999996 -5.639932965095795e-15 40.0
    vertex 7.9999999999999964 1.9999999999999942 39.99999999999999
  endloop
endfacet
facet normal -2.8199664825478977e-16 -2.8199664825478977e-16 1.0
  outer loop
    vertex 7.9999999999999964 1.9999999999999942 39.99999999999999
    vertex 9.999999999999996 -5.639932965095795e-15 40.0
    vertex 7.9999999999999964 2.9999999999999942 39.99999999999999
  endloop
endfacet
facet normal -2.8199664825478977e-16 -2.8199664825478977e-16 1.0
  outer loop
    vertex 7.9999999999999964 2.9999999999999942 39.99999999999999
    vertex 9.999999999999996 -5.639932965095795e-15 40.0
    vertex 7.9999999999999964 6.69829172068222 39.99999999999999
  endloop
endfacet
facet normal -2.8199664825478977e-16 -2.8199664825478977e-16 1.0
  outer loop
    vertex 7.9999999999999964 6.69829172068222 39.99999999999999
    vertex 9.999999999999996 -5.639932965095795e-15 40.0
    vertex 7.9999999999999964 7.999999999999994 39.99999999999999
  endloop
endfacet
facet normal -2.8199664825478977e-16 -2.8199664825478977e-16 1.0
  outer loop
    vertex -2.8199664825478975e-15 9.999999999999993 40.0
    vertex 1.9999999999999962 7.999999999999994 39.99999999999999
    vertex 9.999999999999996 9.999999999999993 40.0
  endloop
endfacet
facet normal -2.8199664825478977e-16 -2.8199664825478977e-16 1.0
  outer loop
    vertex 1.9999999999999962 7.999999999999994 39.99999999999999
    vertex -2.8199664825478975e-15 9.999999999999993 40.0
    vertex 1.9999999999999962 6.999999999999994 39.99999999999999
  endloop
endfacet
facet normal -2.8199664825478977e-16 -2.8199664825478977e-16 1.0
  outer loop
    vertex 9.999999999999996 9.999999999999993 40.0
    vertex 1.9999999999999962 7.999999999999994 39.99999999999999
    vertex 7.9999999999999964 7.999999999999994 39.99999999999999
  endloop
endfacet
facet normal -2.8199664825478977e-16 -2.8199664825478977e-16 1.0
  outer loop
    vertex 9.999999999999996 9.999999999999993 40.0
    vertex 7.9999999999999964 7.999999999999994 39.99999999999999
    vertex 9.999999999999996 -5.639932965095795e-15 40.0
  endloop
endfacet
facet normal -2.8199664825478977e-16 -2.8199664825478977e-16 1.0
  outer loop
    vertex 7.9999999999999964 6.69829172068222 39.99999999999999
    vertex 3.562049935181325 2.999999999999994 39.99999999999999
    vertex 7.9999999999999964 2.9999999999999942 39.99999999999999
  endloop
endfacet
facet normal -2.8199664825478977e-16 -2.8199664825478977e-16 1.0
  outer loop
    vertex 1.9999999999999962 6.999999999999994 39.99999999999999
    vertex 1.9999999999999967 2.9999999999999942 39.99999999999999
    vertex 6.799999999999996 6.999999999999994 40.0
  endloop
endfacet
facet normal -2.8199664825478977e-16 -2.8199664825478977e-16 1.0
  outer loop
    vertex 1.9999999999999967 2.9999999999999942 39.99999999999999
    vertex 1.9999999999999962 6.999999999999994 39.99999999999999
    vertex 1.9999999999999967 1.9999999999999942 39.99999999999999
  endloop
endfacet
facet normal 0.9999999999999999 -0.0 2.819966482547897e-16
  outer loop
    vertex 10.0 -2.8199664825478975e-15 30.0
    vertex 9.999999999999996 9.999999999999993 40.0
    vertex 9.999999999999996 -5.639932965095795e-15 40.0
  endloop
endfacet
facet normal 0.9999999999999999 -0.0 2.819966482547897e-16
  outer loop
    vertex 9.999999999999996 9.999999999999993 40.0
    vertex 10.0 -2.8199664825478975e-15 30.0
    vertex 10.0 9.999999999999996 30.0
  endloop
endfacet
facet normal -0.0 -0.0 1.0
  outer loop
    vertex 0.0 20.0 10.0
    vertex 1.9999999999999991 22.0 10.0
    vertex 0.0 40.0 10.0
  endloop
endfacet
facet normal -0.0 -0.0 1.0
  outer loop
    vertex 1.9999999999999991 22.0 10.0
    vertex 0.0 20.0 10.0
    vertex 20.0 20.0 10.0
  endloop
endfacet
facet normal -0.0 -0.0 1.0
  outer loop
    vertex 1.9999999999999991 22.0 10.0
    vertex 20.0 20.0 10.0
    vertex 4.5 22.0 10.0
  endloop
endfacet
facet normal -0.0 -0.0 1.0
  outer loop
    vertex 4.5 22.0 10.0
    vertex 20.0 20.0 10.0
    vertex 5.5 22.0 10.0
  endloop
endfacet
facet normal -0.0 -0.0 1.0
  outer loop
    vertex 5.5 22.0 10.0
    vertex 20.0 20.0 10.0
    vertex 7.999999999999999 22.0 10.0
  endloop
endfacet
facet normal -0.0 -0.0 1.0
  outer loop
    vertex 7.999999999999999 22.0 10.0
    vertex 20.0 20.0 10.0
    vertex 7.999999999999999 28.0 10.0
  endloop
endfacet
facet normal -0.0 -0.0 1.0
  outer loop
    vertex 7.999999999999999 28.0 10.0
    vertex 20.0 20.0 10.0
    vertex 10.0 30.0 10.0
  endloop
endfacet
facet normal -0.0 -0.0 1.0
  outer loop
    vertex 7.999999999999999 28.0 10.0
    vertex 10.0 30.0 10.0
    vertex 7.999999999999999 35.0 10.0
  endloop
endfacet
facet normal -0.0 -0.0 1.0
  outer loop
    vertex 10.0 30.0 10.0
    vertex 20.0 20.0 10.0
    vertex 20.0 30.0 10.0
  endloop
endfacet
facet normal -0.0 -0.0 1.0
  outer loop
    vertex 0.0 40.0 10.0
    vertex 5.0 38.0 10.0
    vertex 10.0 40.0 10.0
  endloop
endfacet
facet normal -0.0 -0.0 1.0
  outer loop
    vertex 5.0 38.0 10.0
    vertex 0.0 40.0 10.0
    vertex 1.9999999999999991 35.0 10.0
  endloop
endfacet
facet normal -0.0 -0.0 1.0
  outer loop
    vertex 1.9999999999999991 35.0 10.0
    vertex 0.0 40.0 10.0
    vertex 1.9999999999999991 22.0 10.0
  endloop
endfacet
facet normal -0.0 -0.0 1.0
  outer loop
    vertex 1.9999999999999991 35.0 10.0
    vertex 1.9999999999999991 22.0 10.0
    vertex 1.9999999999999991 28.0 10.0
  endloop
endfacet
facet normal -0.0 -0.0 1.0
  outer loop
    vertex 10.0 40.0 10.0
    vertex 5.0 38.0 10.0
    vertex 7.999999999999999 35.0 10.0
  endloop
endfacet
facet normal -0.0 -0.0 1.0
  outer loop
    vertex 10.0 40.0 10.0
    vertex 7.999999999999999 35.0 10.0
    vertex 10.0 30.0 10.0
  endloop
endfacet
facet normal -0.0 -0.0 1.0
  outer loop
    vertex 7.02371879051167 28.0 10.0
    vertex 4.5 30.0 10.0
    vertex 2.976281209488332 28.0 10.0
  endloop
endfacet
facet normal -0.0 -0.0 1.0
  outer loop
    vertex 4.5 30.0 10.0
    vertex 7.02371879051167 28.0 10.0
    vertex 5.5 30.0 10.0
  endloop
endfacet
facet normal -0.0 -0.0 1.0
  outer loop
    vertex 5.5 30.0 10.0
    vertex 7.02371879051167 28.0 10.0
    vertex 5.5 35.0 10.0
  endloop
endfacet
facet normal -0.0 -0.0 1.0
  outer loop
    vertex 5.5 35.0 10.0
    vertex 7.02371879051167 28.0 10.0
    vertex 7.999999999999999 35.0 10.0
  endloop
endfacet
facet normal -0.0 -0.0 1.0
  outer loop
    vertex 7.999999999999999 35.0 10.0
    vertex 7.02371879051167 28.0 10.0
    vertex 7.999999999999999 28.0 10.0
  endloop
endfacet
facet normal -0.0 -0.0 1.0
  outer loop
    vertex 2.976281209488332 28.0 10.0
    vertex 1.9999999999999991 35.0 10.0
    vertex 1.9999999999999991 28.0 10.0
  endloop
endfacet
facet normal -0.0 -0.0 1.0
  outer loop
    vertex 1.9999999999999991 35.0 10.0
    vertex 2.976281209488332 28.0 10.0
    vertex 4.5 35.0 10.0
  endloop
endfacet
facet normal -0.0 -0.0 1.0
  outer loop
    vertex 4.5 35.0 10.0
    vertex 2.976281209488332 28.0 10.0
    vertex 4.5 30.0 10.0
  endloop
endfacet
facet normal 1.0 -0.0 -0.0
  outer loop
    vertex 10.0 40.0 1.762479051592436e-15
    vertex 10.0 30.0 10.0
    vertex 10.0 30.0 1.762479051592436e-15
  endloop
endfacet
facet normal 1.0 -0.0 -0.0
  outer loop
    vertex 10.0 30.0 10.0
    vertex 10.0 40.0 1.762479051592436e-15
    vertex 10.0 40.0 10.0
  endloop
endfacet
facet normal -0.0 1.0 -0.0
  outer loop
    vertex 10.0 30.0 10.0
    vertex 20.0 30.0 1.762479051592436e-15
    vertex 10.0 30.0 1.762479051592436e-15
  endloop
endfacet
facet normal -0.0 1.0 -0.0
  outer loop
    vertex 20.0 30.0 1.762479051592436e-15
    vertex 10.0 30.0 10.0
    vertex 20.0 30.0 10.0
  endloop
endfacet
facet normal 0.0 0.0 1.0
  outer loop
    vertex 7.102222521132795 14.223542864692435 10.0
    vertex 7.102222521132795 15.776457135307561 10.0
    vertex 7.0 15.0 10.0
  endloop
endfacet
facet normal 0.0 0.0 1.0
  outer loop
    vertex 7.102222521132795 15.776457135307561 10.0
    vertex 7.102222521132795 14.223542864692435 10.0
    vertex 7.401923788646684 13.5 10.0
  endloop
endfacet
facet normal 0.0 0.0 1.0
  outer loop
    vertex 7.102222521132795 15.776457135307561 10.0
    vertex 7.401923788646684 13.5 10.0
    vertex 7.401923788646682 16.499999999999996 10.0
  endloop
endfacet
facet normal 0.0 0.0 1.0
  outer loop
    vertex 7.401923788646682 16.499999999999996 10.0
    vertex 7.401923788646684 13.5 10.0
    vertex 7.878679656440356 17.121320343559642 10.0
  endloop
endfacet
facet normal 0.0 0.0 1.0
  outer loop
    vertex 7.878679656440356 17.121320343559642 10.0
    vertex 7.401923788646684 13.5 10.0
    vertex 7.878679656440359 12.878679656440358 10.0
  endloop
endfacet
facet normal 0.0 0.0 1.0
  outer loop
    vertex 7.878679656440356 17.121320343559642 10.0
    vertex 7.878679656440359 12.878679656440358 10.0
    vertex 8.499999999999998 17.598076211353316 10.0
  endloop
endfacet
facet normal 0.0 0.0 1.0
  outer loop
    vertex 8.499999999999998 17.598076211353316 10.0
    vertex 7.878679656440359 12.878679656440358 10.0
    vertex 8.500000000000002 12.401923788646684 10.0
  endloop
endfacet
facet normal 0.0 0.0 1.0
  outer loop
    vertex 8.499999999999998 17.598076211353316 10.0
    vertex 8.500000000000002 12.401923788646684 10.0
    vertex 9.223542864692435 17.897777478867205 10.0
  endloop
endfacet
facet normal 0.0 0.0 1.0
  outer loop
    vertex 9.223542864692435 17.897777478867205 10.0
    vertex 8.500000000000002 12.401923788646684 10.0
    vertex 9.223542864692439 12.102222521132795 10.0
  endloop
endfacet
facet normal 0.0 0.0 1.0
  outer loop
    vertex 9.223542864692435 17.897777478867205 10.0
    vertex 9.223542864692439 12.102222521132795 10.0
    vertex 10.0 18.0 10.0
  endloop
endfacet
facet normal 0.0 0.0 1.0
  outer loop
    vertex 10.0 18.0 10.0
    vertex 9.223542864692439 12.102222521132795 10.0
    vertex 10.0 12.0 10.0
  endloop
endfacet
facet normal 0.0 0.0 1.0
  outer loop
    vertex 10.0 18.0 10.0
    vertex 10.0 12.0 10.0
    vertex 10.776457135307563 12.102222521132795 10.0
  endloop
endfacet
facet normal 0.0 0.0 1.0
  outer loop
    vertex 10.0 18.0 10.0
    vertex 10.776457135307563 12.102222521132795 10.0
    vertex 10.776457135307563 17.897777478867205 10.0
  endloop
endfacet
facet normal 0.0 0.0 1.0
  outer loop
    vertex 10.776457135307563 17.897777478867205 10.0
    vertex 10.776457135307563 12.102222521132795 10.0
    vertex 11.500000000000002 12.401923788646686 10.0
  endloop
endfacet
facet normal 0.0 0.0 1.0
  outer loop
    vertex 10.776457135307563 17.897777478867205 10.0
    vertex 11.500000000000002 12.401923788646686 10.0
    vertex 11.5 17.598076211353316 10.0
  endloop
endfacet
facet normal 0.0 0.0 1.0
  outer loop
    vertex 11.5 17.598076211353316 10.0
    vertex 11.500000000000002 12.401923788646686 10.0
    vertex 12.121320343559642 17.121320343559642 10.0
  endloop
endfacet
facet normal 0.0 0.0 1.0
  outer loop
    vertex 12.121320343559642 17.121320343559642 10.0
    vertex 11.500000000000002 12.401923788646686 10.0
    vertex 12.121320343559644 12.878679656440358 10.0
  endloop
endfacet
facet normal 0.0 0.0 1.0
  outer loop
    vertex 12.121320343559642 17.121320343559642 10.0
    vertex 12.121320343559644 12.878679656440358 10.0
    vertex 12.598076211353316 16.5 10.0
  endloop
endfacet
facet normal 0.0 0.0 1.0
  outer loop
    vertex 12.598076211353316 16.5 10.0
    vertex 12.121320343559644 12.878679656440358 10.0
    vertex 12.598076211353316 13.5 10.0
  endloop
endfacet
facet normal 0.0 0.0 1.0
  outer loop
    vertex 12.598076211353316 16.5 10.0
    vertex 12.598076211353316 13.5 10.0
    vertex 12.897777478867207 14.223542864692439 10.0
  endloop
endfacet
facet normal 0.0 0.0 1.0
  outer loop
    vertex 12.598076211353316 16.5 10.0
    vertex 12.897777478867207 14.223542864692439 10.0
    vertex 12.897777478867203 15.776457135307563 10.0
  endloop
endfacet
facet normal 0.0 0.0 1.0
  outer loop
    vertex 12.897777478867203 15.776457135307563 10.0
    vertex 12.897777478867207 14.223542864692439 10.0
    vertex 12.999999999999998 15.0 10.0
  endloop
endfacet
facet normal -0.5000000000000004 -0.8660254037844384 0.0
  outer loop
    vertex 11.5 17.598076211353316 15.0
    vertex 10.776457135307563 17.897777478867205 10.0
    vertex 11.5 17.598076211353316 10.0
  endloop
endfacet
facet normal -0.2588190451025216 -0.9659258262890681 3.976105481346781e-32
  outer loop
    vertex 10.776457135307563 17.897777478867205 10.0
    vertex 11.5 17.598076211353316 15.0
    vertex 10.776457135307563 17.897777478867205 15.0
  endloop
endfacet
facet normal -0.2588190451025216 -0.9659258262890681 3.976105481346781e-32
  outer loop
    vertex 10.776457135307563 17.897777478867205 15.0
    vertex 10.0 18.0 10.0
    vertex 10.776457135307563 17.897777478867205 10.0
  endloop
endfacet
facet normal -1.1584442864340977e-16 -1.0 3.8452394270242213e-32
  outer loop
    vertex 10.0 18.0 10.0
    vertex 10.776457135307563 17.897777478867205 15.0
    vertex 10.0 18.0 15.0
  endloop
endfacet
facet normal 0.04384197029604777 -0.999038478558539 2.4738679487081444e-32
  outer loop
    vertex 10.0 18.0 15.0
    vertex 9.223542864692435 17.897777478867205 10.0
    vertex 10.0 18.0 10.0
  endloop
endfacet
facet normal 0.2588190451025215 -0.9659258262890681 -1.308660543225595e-33
  outer loop
    vertex 9.223542864692435 17.897777478867205 10.0
    vertex 10.0 18.0 15.0
    vertex 9.223542864692435 17.897777478867205 20.0
  endloop
endfacet
facet normal 0.2588190451025215 -0.9659258262890681 -1.308660543225595e-33
  outer loop
    vertex 9.223542864692435 17.897777478867205 20.0
    vertex 10.0 18.0 15.0
    vertex 10.0 18.0 20.0
  endloop
endfacet
facet normal 0.2588190451025215 -0.9659258262890681 -1.308660543225595e-33
  outer loop
    vertex 9.223542864692435 17.897777478867205 20.0
    vertex 8.499999999999998 17.598076211353316 10.0
    vertex 9.223542864692435 17.897777478867205 10.0
  endloop
endfacet
facet normal 0.5000000000000004 -0.8660254037844384 0.0
  outer loop
    vertex 8.499999999999998 17.598076211353316 10.0
    vertex 9.223542864692435 17.897777478867205 20.0
    vertex 8.499999999999998 17.598076211353316 20.0
  endloop
endfacet
facet normal 0.5000000000000004 -0.8660254037844384 0.0
  outer loop
    vertex 8.499999999999998 17.598076211353316 20.0
    vertex 7.878679656440356 17.121320343559642 10.0
    vertex 8.499999999999998 17.598076211353316 10.0
  endloop
endfacet
facet normal 0.7071067811865479 -0.7071067811865474 0.0
  outer loop
    vertex 7.878679656440356 17.121320343559642 10.0
    vertex 8.499999999999998 17.598076211353316 20.0
    vertex 7.878679656440356 17.121320343559642 20.0
  endloop
endfacet
facet normal 0.7071067811865479 -0.7071067811865474 0.0
  outer loop
    vertex 7.878679656440356 17.121320343559642 10.0
    vertex 7.401923788646682 16.499999999999996 20.0
    vertex 7.401923788646682 16.499999999999996 10.0
  endloop
endfacet
facet normal 0.8660254037844395 -0.4999999999999987 0.0
  outer loop
    vertex 7.401923788646682 16.499999999999996 20.0
    vertex 7.878679656440356 17.121320343559642 10.0
    vertex 7.878679656440356 17.121320343559642 20.0
  endloop
endfacet
facet normal 0.8660254037844395 -0.4999999999999987 0.0
  outer loop
    vertex 7.401923788646682 16.499999999999996 10.0
    vertex 7.102222521132795 15.776457135307561 20.0
    vertex 7.102222521132795 15.776457135307561 10.0
  endloop
endfacet
facet normal 0.9659258262890684 -0.25881904510252024 0.0
  outer loop
    vertex 7.102222521132795 15.776457135307561 20.0
    vertex 7.401923788646682 16.499999999999996 10.0
    vertex 7.401923788646682 16.499999999999996 20.0
  endloop
endfacet
facet normal 0.9659258262890684 -0.25881904510252024 0.0
  outer loop
    vertex 7.102222521132795 15.776457135307561 10.0
    vertex 7.0 15.0 20.0
    vertex 7.0 15.0 10.0
  endloop
endfacet
facet normal 1.0 -4.63377714573639e-16 0.0
  outer loop
    vertex 7.0 15.0 20.0
    vertex 7.102222521132795 15.776457135307561 10.0
    vertex 7.102222521132795 15.776457135307561 20.0
  endloop
endfacet
facet normal 1.0 -4.63377714573639e-16 0.0
  outer loop
    vertex 7.0 15.0 10.0
    vertex 7.102222521132795 14.223542864692435 20.0
    vertex 7.102222521132795 14.223542864692435 10.0
  endloop
endfacet
facet normal 0.9659258262890681 0.25881904510252124 0.0
  outer loop
    vertex 7.102222521132795 14.223542864692435 20.0
    vertex 7.0 15.0 10.0
    vertex 7.0 15.0 20.0
  endloop
endfacet
facet normal 0.9659258262890681 0.25881904510252124 0.0
  outer loop
    vertex 7.102222521132795 14.223542864692435 10.0
    vertex 7.401923788646684 13.5 20.0
    vertex 7.401923788646684 13.5 10.0
  endloop
endfacet
facet normal 0.8660254037844377 0.5000000000000016 0.0
  outer loop
    vertex 7.401923788646684 13.5 20.0
    vertex 7.102222521132795 14.223542864692435 10.0
    vertex 7.102222521132795 14.223542864692435 20.0
  endloop
endfacet
facet normal 0.8660254037844377 0.5000000000000016 0.0
  outer loop
    vertex 7.401923788646684 13.5 10.0
    vertex 7.878679656440359 12.878679656440358 20.0
    vertex 7.878679656440359 12.878679656440358 10.0
  endloop
endfacet
facet normal 0.707106781186547 0.7071067811865481 0.0
  outer loop
    vertex 7.878679656440359 12.878679656440358 20.0
    vertex 7.401923788646684 13.5 10.0
    vertex 7.401923788646684 13.5 20.0
  endloop
endfacet
facet normal 0.707106781186547 0.7071067811865481 0.0
  outer loop
    vertex 7.878679656440359 12.878679656440358 20.0
    vertex 8.500000000000002 12.401923788646684 10.0
    vertex 7.878679656440359 12.878679656440358 10.0
  endloop
endfacet
facet normal 0.5000000000000004 0.8660254037844384 0.0
  outer loop
    vertex 8.500000000000002 12.401923788646684 10.0
    vertex 7.878679656440359 12.878679656440358 20.0
    vertex 8.500000000000002 12.401923788646684 20.0
  endloop
endfacet
facet normal 0.5000000000000004 0.8660254037844384 0.0
  outer loop
    vertex 8.500000000000002 12.401923788646684 20.0
    vertex 9.223542864692439 12.102222521132795 10.0
    vertex 8.500000000000002 12.401923788646684 10.0
  endloop
endfacet
facet normal 0.2588190451025209 0.9659258262890682 1.3086605432255991e-33
  outer loop
    vertex 9.223542864692439 12.102222521132795 10.0
    vertex 8.500000000000002 12.401923788646684 20.0
    vertex 9.223542864692439 12.102222521132795 20.0
  endloop
endfacet
facet normal 0.2588190451025209 0.9659258262890682 1.3086605432255991e-33
  outer loop
    vertex 9.223542864692439 12.102222521132795 20.0
    vertex 10.0 12.0 10.0
    vertex 9.223542864692439 12.102222521132795 10.0
  endloop
endfacet
facet normal 1.0693331874776287e-16 1.0 1.3086605432255995e-33
  outer loop
    vertex 10.0 12.0 10.0
    vertex 9.223542864692439 12.102222521132795 20.0
    vertex 10.0 12.0 15.0
  endloop
endfacet
facet normal 0.04384197057278268 0.9990384785463948 1.743202986806514e-33
  outer loop
    vertex 10.0 12.0 15.0
    vertex 9.223542864692439 12.102222521132795 20.0
    vertex 10.0 12.0 20.0
  endloop
endfacet
facet normal 0.04384197057278268 0.9990384785463948 1.743202986806514e-33
  outer loop
    vertex 10.0 12.0 15.0
    vertex 10.776457135307563 12.102222521132795 10.0
    vertex 10.0 12.0 10.0
  endloop
endfacet
facet normal -0.25881904510252124 0.9659258262890681 0.0
  outer loop
    vertex 10.776457135307563 12.102222521132795 10.0
    vertex 10.0 12.0 15.0
    vertex 10.776457135307563 12.102222521132795 15.0
  endloop
endfacet
facet normal -0.25881904510252124 0.9659258262890681 0.0
  outer loop
    vertex 10.776457135307563 12.102222521132795 15.0
    vertex 11.500000000000002 12.401923788646686 10.0
    vertex 10.776457135307563 12.102222521132795 10.0
  endloop
endfacet
facet normal -0.5000000000000001 0.8660254037844386 0.0
  outer loop
    vertex 11.500000000000002 12.401923788646686 10.0
    vertex 10.776457135307563 12.102222521132795 15.0
    vertex 11.500000000000002 12.401923788646686 15.0
  endloop
endfacet
facet normal -0.5000000000000001 0.8660254037844386 0.0
  outer loop
    vertex 11.500000000000002 12.401923788646686 15.0
    vertex 12.121320343559644 12.878679656440358 10.0
    vertex 11.500000000000002 12.401923788646686 10.0
  endloop
endfacet
facet normal -0.7071067811865475 0.7071067811865475 0.0
  outer loop
    vertex 12.121320343559644 12.878679656440358 10.0
    vertex 11.500000000000002 12.401923788646686 15.0
    vertex 12.121320343559644 12.878679656440358 15.0
  endloop
endfacet
facet normal -0.8660254037844384 0.5000000000000004 0.0
  outer loop
    vertex 12.598076211353316 13.5 15.0
    vertex 12.121320343559644 12.878679656440358 10.0
    vertex 12.121320343559644 12.878679656440358 15.0
  endloop
endfacet
facet normal -0.7071067811865475 0.7071067811865475 0.0
  outer loop
    vertex 12.121320343559644 12.878679656440358 10.0
    vertex 12.598076211353316 13.5 15.0
    vertex 12.598076211353316 13.5 10.0
  endloop
endfacet
facet normal -0.9659258262890684 0.25881904510251985 0.0
  outer loop
    vertex 12.897777478867207 14.223542864692439 15.0
    vertex 12.598076211353316 13.5 10.0
    vertex 12.598076211353316 13.5 15.0
  endloop
endfacet
facet normal -0.8660254037844384 0.5000000000000004 0.0
  outer loop
    vertex 12.598076211353316 13.5 10.0
    vertex 12.897777478867207 14.223542864692439 15.0
    vertex 12.897777478867207 14.223542864692439 10.0
  endloop
endfacet
facet normal -1.0 -1.7911330890250273e-15 0.0
  outer loop
    vertex 12.999999999999998 15.0 15.0
    vertex 12.897777478867207 14.223542864692439 10.0
    vertex 12.897777478867207 14.223542864692439 15.0
  endloop
endfacet
facet normal -0.9659258262890684 0.25881904510251985 0.0
  outer loop
    vertex 12.897777478867207 14.223542864692439 10.0
    vertex 12.999999999999998 15.0 15.0
    vertex 12.999999999999998 15.0 10.0
  endloop
endfacet
facet normal -0.9659258262890684 -0.25881904510252 0.0
  outer loop
    vertex 12.897777478867203 15.776457135307563 15.0
    vertex 12.999999999999998 15.0 10.0
    vertex 12.999999999999998 15.0 15.0
  endloop
endfacet
facet normal -1.0 -1.7911330890250273e-15 0.0
  outer loop
    vertex 12.999999999999998 15.0 10.0
    vertex 12.897777478867203 15.776457135307563 15.0
    vertex 12.897777478867203 15.776457135307563 10.0
  endloop
endfacet
facet normal -0.8660254037844388 -0.49999999999999967 0.0
  outer loop
    vertex 12.598076211353316 16.5 15.0
    vertex 12.897777478867203 15.776457135307563 10.0
    vertex 12.897777478867203 15.776457135307563 15.0
  endloop
endfacet
facet normal -0.9659258262890684 -0.25881904510252 0.0
  outer loop
    vertex 12.897777478867203 15.776457135307563 10.0
    vertex 12.598076211353316 16.5 15.0
    vertex 12.598076211353316 16.5 10.0
  endloop
endfacet
facet normal -0.707106781186547 -0.707106781186548 0.0
  outer loop
    vertex 12.121320343559642 17.121320343559642 15.0
    vertex 12.598076211353316 16.5 10.0
    vertex 12.598076211353316 16.5 15.0
  endloop
endfacet
facet normal -0.8660254037844388 -0.49999999999999967 0.0
  outer loop
    vertex 12.598076211353316 16.5 10.0
    vertex 12.121320343559642 17.121320343559642 15.0
    vertex 12.121320343559642 17.121320343559642 10.0
  endloop
endfacet
facet normal -0.707106781186547 -0.707106781186548 0.0
  outer loop
    vertex 12.121320343559642 17.121320343559642 15.0
    vertex 11.5 17.598076211353316 10.0
    vertex 12.121320343559642 17.121320343559642 10.0
  endloop
endfacet
facet normal -0.5000000000000004 -0.8660254037844384 0.0
  outer loop
    vertex 11.5 17.598076211353316 10.0
    vertex 12.121320343559642 17.121320343559642 15.0
    vertex 11.5 17.598076211353316 15.0
  endloop
endfacet
facet normal 1.0 -0.0 -0.0
  outer loop
    vertex 20.0 20.0 5.0
    vertex 20.0 9.999999999999998 10.0
    vertex 20.0 9.999999999999998 5.0
  endloop
endfacet
facet normal 1.0 -0.0 -0.0
  outer loop
    vertex 20.0 9.999999999999998 10.0
    vertex 20.0 20.0 5.0
    vertex 20.0 9.999999999999998 15.0
  endloop
endfacet
facet normal 1.0 -0.0 -0.0
  outer loop
    vertex 20.0 9.999999999999998 15.0
    vertex 20.0 20.0 5.0
    vertex 20.0 20.0 15.0
  endloop
endfacet
facet normal 1.0 -0.0 -0.0
  outer loop
    vertex 20.0 20.0 15.0
    vertex 20.0 20.0 5.0
    vertex 20.0 20.0 10.0
  endloop
endfacet
facet normal 1.0 -0.0 -0.0
  outer loop
    vertex 20.0 0.0 10.0
    vertex 20.0 9.999999999999996 30.0
    vertex 20.0 -2.8199664825478975e-15 29.999999999999996
  endloop
endfacet
facet normal 1.0 -0.0 -0.0
  outer loop
    vertex 20.0 9.999999999999996 30.0
    vertex 20.0 0.0 10.0
    vertex 20.0 9.999999999999998 10.0
  endloop
endfacet
facet normal 1.0 -0.0 -0.0
  outer loop
    vertex 20.0 9.999999999999996 30.0
    vertex 20.0 9.999999999999998 10.0
    vertex 20.0 9.999999999999998 15.0
  endloop
endfacet
facet normal 1.0 -0.0 -0.0
  outer loop
    vertex 20.0 30.0 1.762479051592436e-15
    vertex 20.0 20.0 5.0
    vertex 20.0 20.0 0.0
  endloop
endfacet
facet normal 1.0 -0.0 -0.0
  outer loop
    vertex 20.0 20.0 5.0
    vertex 20.0 30.0 1.762479051592436e-15
    vertex 20.0 20.0 10.0
  endloop
endfacet
facet normal 1.0 -0.0 -0.0
  outer loop
    vertex 20.0 20.0 10.0
    vertex 20.0 30.0 1.762479051592436e-15
    vertex 20.0 30.0 10.0
  endloop
endfacet
facet normal 1.0 0.0 0.0
  outer loop
    vertex 31.64999999999998 20.0 0.0
    vertex 31.64999999999998 9.999999999999998 5.0
    vertex 31.64999999999998 9.999999999999998 0.0
  endloop
endfacet
facet normal 1.0 0.0 0.0
  outer loop
    vertex 31.64999999999998 9.999999999999998 5.0
    vertex 31.64999999999998 20.0 0.0
    vertex 31.64999999999998 20.0 5.0
  endloop
endfacet
facet normal 0.0 1.0 -0.0
  outer loop
    vertex 20.0 20.0 5.0
    vertex 31.64999999999998 20.0 0.0
    vertex 20.0 20.0 0.0
  endloop
endfacet
facet normal 0.0 1.0 -0.0
  outer loop
    vertex 31.64999999999998 20.0 0.0
    vertex 20.0 20.0 5.0
    vertex 31.64999999999998 20.0 5.0
  endloop
endfacet
facet normal 0.0 0.0 1.0
  outer loop
    vertex 31.64999999999998 9.999999999999998 5.0
    vertex 20.0 20.0 5.0
    vertex 20.0 9.999999999999998 5.0
  endloop
endfacet
facet normal 0.0 0.0 1.0
  outer loop
    vertex 20.0 20.0 5.0
    vertex 31.64999999999998 9.999999999999998 5.0
    vertex 31.64999999999998 20.0 5.0
  endloop
endfacet
facet normal -0.0 1.0 -0.0
  outer loop
    vertex 20.0 9.999999999999998 10.0
    vertex 31.64999999999998 9.999999999999998 5.0
    vertex 20.0 9.999999999999998 5.0
  endloop
endfacet
facet normal -0.0 1.0 -0.0
  outer loop
    vertex 31.64999999999998 9.999999999999998 5.0
    vertex 20.0 9.999999999999998 10.0
    vertex 31.64999999999998 9.999999999999998 10.0
  endloop
endfacet
facet normal -0.0 1.0 -0.0
  outer loop
    vertex 31.64999999999998 9.999999999999998 10.0
    vertex 20.0 9.999999999999998 10.0
    vertex 30.0 9.999999999999998 10.0
  endloop
endfacet
facet normal 0.0 0.0 1.0
  outer loop
    vertex 27.292893218813457 7.999999999999999 9.299999999999999
    vertex 22.70710678118655 7.999999999999999 9.299999999999999
    vertex 25.0 5.707106781186547 9.299999999999999
  endloop
endfacet
facet normal -0.7071067811865469 0.7071067811865482 -0.0
  outer loop
    vertex 25.0 5.707106781186547 10.7
    vertex 27.292893218813457 7.999999999999999 9.299999999999999
    vertex 25.0 5.707106781186547 9.299999999999999
  endloop
endfacet
facet normal -0.7071067811865469 0.7071067811865482 -0.0
  outer loop
    vertex 27.292893218813457 7.999999999999999 9.299999999999999
    vertex 25.0 5.707106781186547 10.7
    vertex 27.292893218813457 7.999999999999999 9.999999999999998
  endloop
endfacet
facet normal -0.7071067811865469 0.7071067811865482 -0.0
  outer loop
    vertex 27.292893218813457 7.999999999999999 9.999999999999998
    vertex 25.0 5.707106781186547 10.7
    vertex 27.292893218813457 8.0 10.7
  endloop
endfacet
facet normal -0.0 -1.0 -0.0
  outer loop
    vertex 27.292893218813457 7.999999999999999 9.999999999999998
    vertex 22.70710678118655 7.999999999999999 9.299999999999999
    vertex 27.292893218813457 7.999999999999999 9.299999999999999
  endloop
endfacet
facet normal -0.0 -1.0 -0.0
  outer loop
    vertex 22.70710678118655 7.999999999999999 9.299999999999999
    vertex 27.292893218813457 7.999999999999999 9.999999999999998
    vertex 22.70710678118655 7.999999999999999 9.999999999999998
  endloop
endfacet
facet normal 0.7071067811865478 0.7071067811865474 0.0
  outer loop
    vertex 22.70710678118655 7.999999999999999 9.299999999999999
    vertex 25.0 5.707106781186547 10.7
    vertex 25.0 5.707106781186547 9.299999999999999
  endloop
endfacet
facet normal 0.7071067811865478 0.7071067811865474 0.0
  outer loop
    vertex 25.0 5.707106781186547 10.7
    vertex 22.70710678118655 7.999999999999999 9.299999999999999
    vertex 22.70710678118655 7.999999999999999 9.999999999999998
  endloop
endfacet
facet normal 0.7071067811865478 0.7071067811865474 0.0
  outer loop
    vertex 25.0 5.707106781186547 10.7
    vertex 22.70710678118655 7.999999999999999 9.999999999999998
    vertex 22.70710678118655 8.0 10.7
  endloop
endfacet
facet normal 0.0 0.0 1.0
  outer loop
    vertex 28.0 7.292893218813451 9.29999999999999
    vertex 25.70710678118655 4.999999999999999 9.29999999999999
    vertex 28.0 2.707106781186547 9.29999999999999
  endloop
endfacet
facet normal 0.7071067811865478 0.7071067811865474 0.0
  outer loop
    vertex 25.70710678118655 4.999999999999999 9.29999999999999
    vertex 28.0 2.707106781186547 9.999999999999998
    vertex 28.0 2.707106781186547 9.29999999999999
  endloop
endfacet
facet normal 0.7071067811865478 0.7071067811865474 0.0
  outer loop
    vertex 28.0 2.707106781186547 9.999999999999998
    vertex 25.70710678118655 4.999999999999999 9.29999999999999
    vertex 28.0 2.707106781186548 10.7
  endloop
endfacet
facet normal 0.7071067811865478 0.7071067811865474 0.0
  outer loop
    vertex 28.0 2.707106781186548 10.7
    vertex 25.70710678118655 4.999999999999999 9.29999999999999
    vertex 25.70710678118655 4.999999999999999 10.7
  endloop
endfacet
facet normal -1.0 0.0 -0.0
  outer loop
    vertex 28.0 7.292893218813451 9.999999999999998
    vertex 28.0 2.707106781186547 9.29999999999999
    vertex 28.0 2.707106781186547 9.999999999999998
  endloop
endfacet
facet normal -1.0 0.0 -0.0
  outer loop
    vertex 28.0 2.707106781186547 9.29999999999999
    vertex 28.0 7.292893218813451 9.999999999999998
    vertex 28.0 7.292893218813451 9.29999999999999
  endloop
endfacet
facet normal 0.7071067811865478 -0.7071067811865474 -0.0
  outer loop
    vertex 28.0 7.292893218813451 9.29999999999999
    vertex 25.70710678118655 4.999999999999999 10.7
    vertex 25.70710678118655 4.999999999999999 9.29999999999999
  endloop
endfacet
facet normal 0.7071067811865478 -0.7071067811865474 -0.0
  outer loop
    vertex 25.70710678118655 4.999999999999999 10.7
    vertex 28.0 7.292893218813451 9.29999999999999
    vertex 28.0 7.292893218813451 9.999999999999998
  endloop
endfacet
facet normal 0.7071067811865478 -0.7071067811865474 -0.0
  outer loop
    vertex 25.70710678118655 4.999999999999999 10.7
    vertex 28.0 7.292893218813451 9.999999999999998
    vertex 28.0 7.292893218813453 10.7
  endloop
endfacet
facet normal 0.0 0.0 1.0
  outer loop
    vertex 24.292893218813454 4.999999999999998 9.3
    vertex 22.0 7.292893218813453 9.3
    vertex 22.0 2.7071067811865444 9.3
  endloop
endfacet
facet normal -0.7071067811865477 -0.7071067811865475 -0.0
  outer loop
    vertex 22.0 7.292893218813455 10.7
    vertex 24.292893218813454 4.999999999999998 9.3
    vertex 24.292893218813454 4.999999999999998 10.7
  endloop
endfacet
facet normal -0.7071067811865477 -0.7071067811865475 -0.0
  outer loop
    vertex 24.292893218813454 4.999999999999998 9.3
    vertex 22.0 7.292893218813455 10.7
    vertex 22.0 7.292893218813453 9.999999999999998
  endloop
endfacet
facet normal -0.7071067811865477 -0.7071067811865475 -0.0
  outer loop
    vertex 22.0 7.292893218813453 9.3
    vertex 24.292893218813454 4.999999999999998 9.3
    vertex 22.0 7.292893218813453 9.999999999999998
  endloop
endfacet
facet normal 0.9999999999999999 0.0 0.0
  outer loop
    vertex 22.0 7.292893218813453 9.3
    vertex 22.0 2.7071067811865444 9.999999999999998
    vertex 22.0 2.7071067811865444 9.3
  endloop
endfacet
facet normal 0.9999999999999999 0.0 0.0
  outer loop
    vertex 22.0 2.7071067811865444 9.999999999999998
    vertex 22.0 7.292893218813453 9.3
    vertex 22.0 7.292893218813453 9.999999999999998
  endloop
endfacet
facet normal -0.7071067811865477 0.7071067811865475 -0.0
  outer loop
    vertex 22.0 2.707106781186545 10.7
    vertex 22.0 2.7071067811865444 9.3
    vertex 22.0 2.7071067811865444 9.999999999999998
  endloop
endfacet
facet normal -0.7071067811865477 0.7071067811865475 -0.0
  outer loop
    vertex 22.0 2.7071067811865444 9.3
    vertex 22.0 2.707106781186545 10.7
    vertex 24.292893218813454 4.999999999999998 9.3
  endloop
endfacet
facet normal -0.7071067811865477 0.7071067811865475 -0.0
  outer loop
    vertex 24.292893218813454 4.999999999999998 9.3
    vertex 22.0 2.707106781186545 10.7
    vertex 24.292893218813454 4.999999999999998 10.7
  endloop
endfacet
facet normal 0.0 0.0 1.0
  outer loop
    vertex 27.292893218813457 1.9999999999999984 9.3
    vertex 25.0 4.292893218813451 9.3
    vertex 22.70710678118655 1.9999999999999991 9.3
  endloop
endfacet
facet normal 0.7071067811865478 -0.7071067811865474 -0.0
  outer loop
    vertex 25.0 4.292893218813451 9.3
    vertex 22.70710678118655 1.9999999999999991 9.999999999999998
    vertex 22.70710678118655 1.9999999999999991 9.3
  endloop
endfacet
facet normal 0.7071067811865478 -0.7071067811865474 -0.0
  outer loop
    vertex 22.70710678118655 1.9999999999999991 9.999999999999998
    vertex 25.0 4.292893218813451 9.3
    vertex 22.70710678118655 1.9999999999999998 10.7
  endloop
endfacet
facet normal 0.7071067811865478 -0.7071067811865474 -0.0
  outer loop
    vertex 22.70710678118655 1.9999999999999998 10.7
    vertex 25.0 4.292893218813451 9.3
    vertex 25.0 4.292893218813451 10.7
  endloop
endfacet
facet normal 1.5373407162017766e-16 1.0 0.0
  outer loop
    vertex 22.70710678118655 1.9999999999999991 9.999999999999998
    vertex 27.292893218813457 1.9999999999999984 9.3
    vertex 22.70710678118655 1.9999999999999991 9.3
  endloop
endfacet
facet normal 1.5373407162017766e-16 1.0 0.0
  outer loop
    vertex 27.292893218813457 1.9999999999999984 9.3
    vertex 22.70710678118655 1.9999999999999991 9.999999999999998
    vertex 27.292893218813457 1.9999999999999984 9.999999999999998
  endloop
endfacet
facet normal -0.707106781186547 -0.7071067811865481 -0.0
  outer loop
    vertex 27.292893218813457 1.9999999999999984 9.999999999999998
    vertex 25.0 4.292893218813451 9.3
    vertex 27.292893218813457 1.9999999999999984 9.3
  endloop
endfacet
facet normal -0.707106781186547 -0.7071067811865481 -0.0
  outer loop
    vertex 25.0 4.292893218813451 9.3
    vertex 27.292893218813457 1.9999999999999984 9.999999999999998
    vertex 25.0 4.292893218813451 10.7
  endloop
endfacet
facet normal -0.707106781186547 -0.7071067811865481 -0.0
  outer loop
    vertex 25.0 4.292893218813451 10.7
    vertex 27.292893218813457 1.9999999999999984 9.999999999999998
    vertex 27.292893218813457 1.9999999999999991 10.7
  endloop
endfacet
facet normal -3.621372617539233e-17 -6.057233454261314e-17 1.0
  outer loop
    vertex 30.0 -1.4099832412739487e-15 10.0
    vertex 35.0 1.999999999999998 9.999999999999998
    vertex 30.0 4.5 9.999999999999998
  endloop
endfacet
facet normal -3.621372617539233e-17 -6.057233454261314e-17 1.0
  outer loop
    vertex 35.0 1.999999999999998 9.999999999999998
    vertex 30.0 -1.4099832412739487e-15 10.0
    vertex 40.0 0.0 10.0
  endloop
endfacet
facet normal -3.621372617539233e-17 -6.057233454261314e-17 1.0
  outer loop
    vertex 30.0 4.5 9.999999999999998
    vertex 35.0 1.999999999999998 9.999999999999998
    vertex 31.65 4.500000000000002 9.999999999999998
  endloop
endfacet
facet normal -3.621372617539233e-17 -6.057233454261314e-17 1.0
  outer loop
    vertex 31.65 4.500000000000002 9.999999999999998
    vertex 35.0 1.999999999999998 9.999999999999998
    vertex 35.0 4.500000000000002 9.999999999999998
  endloop
endfacet
facet normal -3.621372617539233e-17 -6.057233454261314e-17 1.0
  outer loop
    vertex 35.0 1.999999999999998 9.999999999999998
    vertex 40.0 0.0 10.0
    vertex 38.0 5.000000000000002 9.999999999999998
  endloop
endfacet
facet normal -3.621372617539233e-17 -6.057233454261314e-17 1.0
  outer loop
    vertex 31.65 5.500000000000001 9.999999999999998
    vertex 30.0 9.999999999999998 10.0
    vertex 30.0 5.500000000000001 9.999999999999998
  endloop
endfacet
facet normal -3.621372617539233e-17 -6.057233454261314e-17 1.0
  outer loop
    vertex 30.0 9.999999999999998 10.0
    vertex 31.65 5.500000000000001 9.999999999999998
    vertex 31.64999999999998 9.999999999999998 10.0
  endloop
endfacet
facet normal -3.621372617539233e-17 -6.057233454261314e-17 1.0
  outer loop
    vertex 31.64999999999998 9.999999999999998 10.0
    vertex 31.65 5.500000000000001 9.999999999999998
    vertex 35.0 7.999999999999999 10.0
  endloop
endfacet
facet normal -3.621372617539233e-17 -6.057233454261314e-17 1.0
  outer loop
    vertex 31.64999999999998 9.999999999999998 10.0
    vertex 35.0 7.999999999999999 10.0
    vertex 40.0 10.0 10.0
  endloop
endfacet
facet normal -3.621372617539233e-17 -6.057233454261314e-17 1.0
  outer loop
    vertex 35.0 7.999999999999999 10.0
    vertex 31.65 5.500000000000001 9.999999999999998
    vertex 35.0 5.500000000000001 9.999999999999998
  endloop
endfacet
facet normal -3.621372617539233e-17 -6.057233454261314e-17 1.0
  outer loop
    vertex 40.0 10.0 10.0
    vertex 35.0 7.999999999999999 10.0
    vertex 38.0 5.000000000000002 9.999999999999998
  endloop
endfacet
facet normal -3.621372617539233e-17 -6.057233454261314e-17 1.0
  outer loop
    vertex 40.0 10.0 10.0
    vertex 38.0 5.000000000000002 9.999999999999998
    vertex 40.0 0.0 10.0
  endloop
endfacet
facet normal -0.0 1.0 -0.0
  outer loop
    vertex 31.65 5.500000000000001 10.7
    vertex 35.0 5.500000000000001 9.999999999999998
    vertex 31.65 5.500000000000001 9.999999999999998
  endloop
endfacet
facet normal -0.0 1.0 -0.0
  outer loop
    vertex 35.0 5.500000000000001 9.999999999999998
    vertex 31.65 5.500000000000001 10.7
    vertex 35.0 5.500000000000001 10.7
  endloop
endfacet
facet normal 0.0 -1.0 0.0
  outer loop
    vertex 35.0 4.500000000000002 10.7
    vertex 31.65 4.500000000000002 9.999999999999998
    vertex 35.0 4.500000000000002 9.999999999999998
  endloop
endfacet
facet normal 0.0 -1.0 0.0
  outer loop
    vertex 31.65 4.500000000000002 9.999999999999998
    vertex 35.0 4.500000000000002 10.7
    vertex 31.65 4.500000000000002 10.7
  endloop
endfacet
facet normal -3.379419411432019e-16 -5.125314383497183e-32 1.0
  outer loop
    vertex 31.65 4.500000000000002 10.7
    vertex 30.0 5.500000000000001 10.699999999999998
    vertex 30.0 4.5 10.699999999999998
  endloop
endfacet
facet normal -3.379419411432019e-16 -5.125314383497183e-32 1.0
  outer loop
    vertex 30.0 5.500000000000001 10.699999999999998
    vertex 31.65 4.500000000000002 10.7
    vertex 31.65 5.500000000000001 10.7
  endloop
endfacet
facet normal -3.379419411432019e-16 -5.125314383497183e-32 1.0
  outer loop
    vertex 31.65 5.500000000000001 10.7
    vertex 31.65 4.500000000000002 10.7
    vertex 35.0 4.500000000000002 10.7
  endloop
endfacet
facet normal -3.379419411432019e-16 -5.125314383497183e-32 1.0
  outer loop
    vertex 31.65 5.500000000000001 10.7
    vertex 35.0 4.500000000000002 10.7
    vertex 35.0 5.500000000000001 10.7
  endloop
endfacet
facet normal -3.379419411432019e-16 -5.125314383497183e-32 1.0
  outer loop
    vertex 35.0 5.500000000000001 10.7
    vertex 35.0 4.500000000000002 10.7
    vertex 35.0 1.9999999999999967 10.7
  endloop
endfacet
facet normal -3.379419411432019e-16 -5.125314383497183e-32 1.0
  outer loop
    vertex 35.0 5.500000000000001 10.7
    vertex 35.0 1.9999999999999967 10.7
    vertex 35.0 7.999999999999998 10.7
  endloop
endfacet
facet normal -3.379419411432019e-16 -5.125314383497183e-32 1.0
  outer loop
    vertex 35.0 7.999999999999998 10.7
    vertex 35.0 1.9999999999999967 10.7
    vertex 38.0 5.000000000000001 10.7
  endloop
endfacet
facet normal -1.0 -2.255973186038314e-15 -3.3473838021087725e-30
  outer loop
    vertex 35.0 4.500000000000002 10.7
    vertex 35.0 1.999999999999998 9.999999999999998
    vertex 35.0 1.9999999999999967 10.7
  endloop
endfacet
facet normal -1.0 -2.255973186038314e-15 -3.3473838021087725e-30
  outer loop
    vertex 35.0 1.999999999999998 9.999999999999998
    vertex 35.0 4.500000000000002 10.7
    vertex 35.0 4.500000000000002 9.999999999999998
  endloop
endfacet
facet normal 0.7071067811865487 -0.7071067811865465 -2.4476114758512923e-16
  outer loop
    vertex 35.0 1.999999999999998 9.999999999999998
    vertex 38.0 5.000000000000001 10.7
    vertex 35.0 1.9999999999999967 10.7
  endloop
endfacet
facet normal 0.7071067811865487 -0.7071067811865465 -2.4476114758512923e-16
  outer loop
    vertex 38.0 5.000000000000001 10.7
    vertex 35.0 1.999999999999998 9.999999999999998
    vertex 38.0 5.000000000000002 9.999999999999998
  endloop
endfacet
facet normal 0.7071067811865471 0.7071067811865478 7.859302904109656e-17
  outer loop
    vertex 35.0 7.999999999999999 10.0
    vertex 38.0 5.000000000000001 10.7
    vertex 38.0 5.000000000000002 9.999999999999998
  endloop
endfacet
facet normal 0.7071067811865471 0.7071067811865478 7.859302904109656e-17
  outer loop
    vertex 38.0 5.000000000000001 10.7
    vertex 35.0 7.999999999999999 10.0
    vertex 35.0 7.999999999999998 10.7
  endloop
endfacet
facet normal -1.0 0.0 0.0
  outer loop
    vertex 35.0 7.999999999999998 10.7
    vertex 35.0 5.500000000000001 9.999999999999998
    vertex 35.0 5.500000000000001 10.7
  endloop
endfacet
facet normal -1.0 0.0 0.0
  outer loop
    vertex 35.0 5.500000000000001 9.999999999999998
    vertex 35.0 7.999999999999998 10.7
    vertex 35.0 7.999999999999999 10.0
  endloop
endfacet
facet normal -1.0 -0.0 -0.0
  outer loop
    vertex 30.0 5.500000000000001 10.699999999999998
    vertex 30.0 4.5 9.999999999999998
    vertex 30.0 4.5 10.699999999999998
  endloop
endfacet
facet normal -1.0 -0.0 -0.0
  outer loop
    vertex 30.0 4.5 9.999999999999998
    vertex 30.0 5.500000000000001 10.699999999999998
    vertex 30.0 5.500000000000001 9.999999999999998
  endloop
endfacet
facet normal 8.545352977417888e-16 -1.0 -8.848340796558466e-32
  outer loop
    vertex 31.65 4.500000000000002 10.7
    vertex 30.0 4.5 9.999999999999998
    vertex 31.65 4.500000000000002 9.999999999999998
  endloop
endfacet
facet normal 8.545352977417888e-16 -1.0 -8.848340796558466e-32
  outer loop
    vertex 30.0 4.5 9.999999999999998
    vertex 31.65 4.500000000000002 10.7
    vertex 30.0 4.5 10.699999999999998
  endloop
endfacet
facet normal -0.0 1.0 -0.0
  outer loop
    vertex 30.0 5.500000000000001 10.699999999999998
    vertex 31.65 5.500000000000001 9.999999999999998
    vertex 30.0 5.500000000000001 9.999999999999998
  endloop
endfacet
facet normal -0.0 1.0 -0.0
  outer loop
    vertex 31.65 5.500000000000001 9.999999999999998
    vertex 30.0 5.500000000000001 10.699999999999998
    vertex 31.65 5.500000000000001 10.7
  endloop
endfacet
facet normal 1.6653575111225553e-32 -8.997075485003684e-17 1.0
  outer loop
    vertex 22.70710678118655 1.9999999999999998 10.7
    vertex 22.0 2.707106781186545 10.7
    vertex 22.0 1.9999999999999998 10.7
  endloop
endfacet
facet normal 1.6653575111225553e-32 -8.997075485003684e-17 1.0
  outer loop
    vertex 22.0 2.707106781186545 10.7
    vertex 22.70710678118655 1.9999999999999998 10.7
    vertex 24.292893218813454 4.999999999999998 10.7
  endloop
endfacet
facet normal 1.6653575111225553e-32 -8.997075485003684e-17 1.0
  outer loop
    vertex 24.292893218813454 4.999999999999998 10.7
    vertex 22.70710678118655 1.9999999999999998 10.7
    vertex 25.0 4.292893218813451 10.7
  endloop
endfacet
facet normal 1.6653575111225553e-32 -8.997075485003684e-17 1.0
  outer loop
    vertex 24.292893218813454 4.999999999999998 10.7
    vertex 22.0 8.0 10.7
    vertex 22.0 7.292893218813455 10.7
  endloop
endfacet
facet normal 1.6653575111225553e-32 -8.997075485003684e-17 1.0
  outer loop
    vertex 22.0 8.0 10.7
    vertex 24.292893218813454 4.999999999999998 10.7
    vertex 22.70710678118655 8.0 10.7
  endloop
endfacet
facet normal 1.6653575111225553e-32 -8.997075485003684e-17 1.0
  outer loop
    vertex 22.70710678118655 8.0 10.7
    vertex 24.292893218813454 4.999999999999998 10.7
    vertex 25.0 5.707106781186547 10.7
  endloop
endfacet
facet normal 1.6653575111225553e-32 -8.997075485003684e-17 1.0
  outer loop
    vertex 25.0 5.707106781186547 10.7
    vertex 24.292893218813454 4.999999999999998 10.7
    vertex 25.0 4.292893218813451 10.7
  endloop
endfacet
facet normal 1.6653575111225553e-32 -8.997075485003684e-17 1.0
  outer loop
    vertex 25.0 5.707106781186547 10.7
    vertex 25.0 4.292893218813451 10.7
    vertex 27.292893218813457 1.9999999999999991 10.7
  endloop
endfacet
facet normal 1.6653575111225553e-32 -8.997075485003684e-17 1.0
  outer loop
    vertex 25.0 5.707106781186547 10.7
    vertex 27.292893218813457 1.9999999999999991 10.7
    vertex 25.70710678118655 4.999999999999999 10.7
  endloop
endfacet
facet normal 1.6653575111225553e-32 -8.997075485003684e-17 1.0
  outer loop
    vertex 25.70710678118655 4.999999999999999 10.7
    vertex 27.292893218813457 1.9999999999999991 10.7
    vertex 28.0 2.707106781186548 10.7
  endloop
endfacet
facet normal 1.6653575111225553e-32 -8.997075485003684e-17 1.0
  outer loop
    vertex 28.0 2.707106781186548 10.7
    vertex 27.292893218813457 1.9999999999999991 10.7
    vertex 28.000000000000004 1.999999999999998 10.7
  endloop
endfacet
facet normal 1.6653575111225553e-32 -8.997075485003684e-17 1.0
  outer loop
    vertex 25.70710678118655 4.999999999999999 10.7
    vertex 27.292893218813457 8.0 10.7
    vertex 25.0 5.707106781186547 10.7
  endloop
endfacet
facet normal 1.6653575111225553e-32 -8.997075485003684e-17 1.0
  outer loop
    vertex 27.292893218813457 8.0 10.7
    vertex 25.70710678118655 4.999999999999999 10.7
    vertex 28.0 7.292893218813453 10.7
  endloop
endfacet
facet normal 1.6653575111225553e-32 -8.997075485003684e-17 1.0
  outer loop
    vertex 27.292893218813457 8.0 10.7
    vertex 28.0 7.292893218813453 10.7
    vertex 28.0 8.0 10.7
  endloop
endfacet
facet normal -1.0 -3.3207518919169044e-47 1.6653575111225553e-32
  outer loop
    vertex 22.0 7.292893218813455 10.7
    vertex 22.0 7.999999999999999 10.0
    vertex 22.0 7.292893218813453 9.999999999999998
  endloop
endfacet
facet normal -1.0 -3.3207518919169044e-47 1.6653575111225553e-32
  outer loop
    vertex 22.0 7.999999999999999 10.0
    vertex 22.0 7.292893218813455 10.7
    vertex 22.0 8.0 10.7
  endloop
endfacet
facet normal -0.9999999999999999 0.0 1.6653575111225553e-32
  outer loop
    vertex 22.0 1.9999999999999998 10.7
    vertex 22.0 2.7071067811865444 9.999999999999998
    vertex 22.0 1.9999999999999991 9.999999999999998
  endloop
endfacet
facet normal -0.9999999999999999 0.0 1.6653575111225553e-32
  outer loop
    vertex 22.0 2.7071067811865444 9.999999999999998
    vertex 22.0 1.9999999999999998 10.7
    vertex 22.0 2.707106781186545 10.7
  endloop
endfacet
facet normal 0.0 -1.0 -8.997075485003684e-17
  outer loop
    vertex 22.70710678118655 1.9999999999999998 10.7
    vertex 22.0 1.9999999999999991 9.999999999999998
    vertex 22.70710678118655 1.9999999999999991 9.999999999999998
  endloop
endfacet
facet normal 0.0 -1.0 -8.997075485003684e-17
  outer loop
    vertex 22.0 1.9999999999999991 9.999999999999998
    vertex 22.70710678118655 1.9999999999999998 10.7
    vertex 22.0 1.9999999999999998 10.7
  endloop
endfacet
facet normal -1.4955130668962918e-15 -1.0 -8.997075485003684e-17
  outer loop
    vertex 28.000000000000004 1.999999999999998 10.7
    vertex 27.292893218813457 1.9999999999999984 9.999999999999998
    vertex 28.000000000000004 1.9999999999999973 9.999999999999998
  endloop
endfacet
facet normal -1.4955130668962918e-15 -1.0 -8.997075485003684e-17
  outer loop
    vertex 27.292893218813457 1.9999999999999984 9.999999999999998
    vertex 28.000000000000004 1.999999999999998 10.7
    vertex 27.292893218813457 1.9999999999999991 10.7
  endloop
endfacet
facet normal 1.0 7.976069690113554e-15 7.009594356447902e-31
  outer loop
    vertex 28.0 2.707106781186547 9.999999999999998
    vertex 28.000000000000004 1.999999999999998 10.7
    vertex 28.000000000000004 1.9999999999999973 9.999999999999998
  endloop
endfacet
facet normal 1.0 7.976069690113554e-15 7.009594356447902e-31
  outer loop
    vertex 28.000000000000004 1.999999999999998 10.7
    vertex 28.0 2.707106781186547 9.999999999999998
    vertex 28.0 2.707106781186548 10.7
  endloop
endfacet
facet normal 1.0 3.3207518919168976e-47 -1.665357511122555e-32
  outer loop
    vertex 28.0 7.999999999999999 10.0
    vertex 28.0 7.292893218813453 10.7
    vertex 28.0 7.292893218813451 9.999999999999998
  endloop
endfacet
facet normal 1.0 3.3207518919168976e-47 -1.665357511122555e-32
  outer loop
    vertex 28.0 7.292893218813453 10.7
    vertex 28.0 7.999999999999999 10.0
    vertex 28.0 8.0 10.7
  endloop
endfacet
facet normal -1.7940325268900544e-31 0.9999999999999999 8.997075485003682e-17
  outer loop
    vertex 27.292893218813457 8.0 10.7
    vertex 28.0 7.999999999999999 10.0
    vertex 27.292893218813457 7.999999999999999 9.999999999999998
  endloop
endfacet
facet normal -1.7940325268900544e-31 0.9999999999999999 8.997075485003682e-17
  outer loop
    vertex 28.0 7.999999999999999 10.0
    vertex 27.292893218813457 8.0 10.7
    vertex 28.0 8.0 10.7
  endloop
endfacet
facet normal 1.7940325268900402e-31 1.0 8.997075485003684e-17
  outer loop
    vertex 22.0 7.999999999999999 10.0
    vertex 22.70710678118655 8.0 10.7
    vertex 22.70710678118655 7.999999999999999 9.999999999999998
  endloop
endfacet
facet normal 1.7940325268900402e-31 1.0 8.997075485003684e-17
  outer loop
    vertex 22.70710678118655 8.0 10.7
    vertex 22.0 7.999999999999999 10.0
    vertex 22.0 8.0 10.7
  endloop
endfacet
facet normal 0.0 0.0 1.0
  outer loop
    vertex 5.5 30.0 10.700000000000005
    vertex 4.5 35.0 10.700000000000005
    vertex 4.5 30.0 10.700000000000005
  endloop
endfacet
facet normal 0.0 0.0 1.0
  outer loop
    vertex 4.5 35.0 10.700000000000005
    vertex 5.5 30.0 10.700000000000005
    vertex 5.0 38.0 10.700000000000005
  endloop
endfacet
facet normal 0.0 0.0 1.0
  outer loop
    vertex 5.0 38.0 10.700000000000005
    vertex 5.5 30.0 10.700000000000005
    vertex 5.5 35.0 10.700000000000005
  endloop
endfacet
facet normal 0.0 0.0 1.0
  outer loop
    vertex 5.0 38.0 10.700000000000005
    vertex 5.5 35.0 10.700000000000005
    vertex 7.999999999999999 35.0 10.700000000000005
  endloop
endfacet
facet normal 0.0 0.0 1.0
  outer loop
    vertex 5.0 38.0 10.700000000000005
    vertex 1.9999999999999991 35.0 10.700000000000005
    vertex 4.5 35.0 10.700000000000005
  endloop
endfacet
facet normal 0.0 -1.0 0.0
  outer loop
    vertex 5.5 30.0 10.700000000000005
    vertex 4.5 30.0 10.0
    vertex 5.5 30.0 10.0
  endloop
endfacet
facet normal 0.0 -1.0 0.0
  outer loop
    vertex 4.5 30.0 10.0
    vertex 5.5 30.0 10.700000000000005
    vertex 4.5 30.0 10.700000000000005
  endloop
endfacet
facet normal 1.0 -0.0 0.0
  outer loop
    vertex 5.5 35.0 10.0
    vertex 5.5 30.0 10.700000000000005
    vertex 5.5 30.0 10.0
  endloop
endfacet
facet normal 1.0 -0.0 0.0
  outer loop
    vertex 5.5 30.0 10.700000000000005
    vertex 5.5 35.0 10.0
    vertex 5.5 35.0 10.700000000000005
  endloop
endfacet
facet normal 0.0 -0.9999999999999999 0.0
  outer loop
    vertex 7.999999999999999 35.0 10.700000000000005
    vertex 5.5 35.0 10.0
    vertex 7.999999999999999 35.0 10.0
  endloop
endfacet
facet normal 0.0 -0.9999999999999999 0.0
  outer loop
    vertex 5.5 35.0 10.0
    vertex 7.999999999999999 35.0 10.700000000000005
    vertex 5.5 35.0 10.700000000000005
  endloop
endfacet
facet normal 0.7071067811865477 0.7071067811865475 0.0
  outer loop
    vertex 5.0 38.0 10.0
    vertex 7.999999999999999 35.0 10.700000000000005
    vertex 7.999999999999999 35.0 10.0
  endloop
endfacet
facet normal 0.7071067811865477 0.7071067811865475 0.0
  outer loop
    vertex 7.999999999999999 35.0 10.700000000000005
    vertex 5.0 38.0 10.0
    vertex 5.0 38.0 10.700000000000005
  endloop
endfacet
facet normal -0.7071067811865475 0.7071067811865476 0.0
  outer loop
    vertex 1.9999999999999991 35.0 10.700000000000005
    vertex 5.0 38.0 10.0
    vertex 1.9999999999999991 35.0 10.0
  endloop
endfacet
facet normal -0.7071067811865475 0.7071067811865476 0.0
  outer loop
    vertex 5.0 38.0 10.0
    vertex 1.9999999999999991 35.0 10.700000000000005
    vertex 5.0 38.0 10.700000000000005
  endloop
endfacet
facet normal 0.0 -1.0 0.0
  outer loop
    vertex 4.5 35.0 10.700000000000005
    vertex 1.9999999999999991 35.0 10.0
    vertex 4.5 35.0 10.0
  endloop
endfacet
facet normal 0.0 -1.0 0.0
  outer loop
    vertex 1.9999999999999991 35.0 10.0
    vertex 4.5 35.0 10.700000000000005
    vertex 1.9999999999999991 35.0 10.700000000000005
  endloop
endfacet
facet normal -1.0 -0.0 -0.0
  outer loop
    vertex 4.5 35.0 10.700000000000005
    vertex 4.5 30.0 10.0
    vertex 4.5 30.0 10.700000000000005
  endloop
endfacet
facet normal -1.0 -0.0 -0.0
  outer loop
    vertex 4.5 30.0 10.0
    vertex 4.5 35.0 10.700000000000005
    vertex 4.5 35.0 10.0
  endloop
endfacet
facet normal -1.0 0.0 0.0
  outer loop
    vertex 4.5 25.0 10.7
    vertex 4.5 22.0 10.0
    vertex 4.5 22.0 10.7
  endloop
endfacet
facet normal -1.0 0.0 0.0
  outer loop
    vertex 4.5 22.0 10.0
    vertex 4.5 25.0 10.7
    vertex 4.499999999999999 22.0 9.3
  endloop
endfacet
facet normal -1.0 0.0 0.0
  outer loop
    vertex 4.499999999999999 22.0 9.3
    vertex 4.5 25.0 10.7
    vertex 4.499999999999999 25.0 9.299999999999997
  endloop
endfacet
facet normal -0.7682212795973757 -0.6401843996644802 5.131926632454064e-30
  outer loop
    vertex 1.9999999999999991 28.0 10.7
    vertex 4.499999999999999 25.0 9.299999999999997
    vertex 4.5 25.0 10.7
  endloop
endfacet
facet normal -0.7682212795973757 -0.6401843996644802 5.131926632454064e-30
  outer loop
    vertex 4.499999999999999 25.0 9.299999999999997
    vertex 1.9999999999999991 28.0 10.7
    vertex 1.999999999999999 28.0 9.3
  endloop
endfacet
facet normal -0.7682212795973757 -0.6401843996644802 5.131926632454064e-30
  outer loop
    vertex 1.999999999999999 28.0 9.3
    vertex 1.9999999999999991 28.0 10.7
    vertex 1.9999999999999991 28.0 10.0
  endloop
endfacet
facet normal 0.7682212795973755 0.6401843996644804 -1.7911946547848568e-17
  outer loop
    vertex 2.976281209488332 28.0 9.3
    vertex 5.000000000000002 25.571537451386 10.7
    vertex 5.000000000000002 25.571537451386 9.3
  endloop
endfacet
facet normal 0.7682212795973755 0.6401843996644804 -1.7911946547848568e-17
  outer loop
    vertex 5.000000000000002 25.571537451386 10.7
    vertex 2.976281209488332 28.0 9.3
    vertex 2.976281209488332 28.0 10.7
  endloop
endfacet
facet normal 0.7682212795973755 0.6401843996644804 -1.7911946547848568e-17
  outer loop
    vertex 2.976281209488332 28.0 10.7
    vertex 2.976281209488332 28.0 9.3
    vertex 2.976281209488332 28.0 10.0
  endloop
endfacet
facet normal -0.7682212795973755 0.6401843996644802 8.955973273925523e-17
  outer loop
    vertex 7.02371879051167 28.0 10.7
    vertex 5.000000000000002 25.571537451386 9.3
    vertex 5.000000000000002 25.571537451386 10.7
  endloop
endfacet
facet normal -0.7682212795973755 0.6401843996644802 8.955973273925523e-17
  outer loop
    vertex 5.000000000000002 25.571537451386 9.3
    vertex 7.02371879051167 28.0 10.7
    vertex 7.02371879051167 28.0 9.3
  endloop
endfacet
facet normal -0.7682212795973755 0.6401843996644802 8.955973273925523e-17
  outer loop
    vertex 7.02371879051167 28.0 9.3
    vertex 7.02371879051167 28.0 10.7
    vertex 7.02371879051167 28.0 10.0
  endloop
endfacet
facet normal 0.7682212795973759 -0.6401843996644797 8.955973273921691e-16
  outer loop
    vertex 7.999999999999998 28.0 9.3
    vertex 5.5 25.0 10.7
    vertex 5.500000000000001 25.0 9.300000000000004
  endloop
endfacet
facet normal 0.7682212795973759 -0.6401843996644797 8.955973273921691e-16
  outer loop
    vertex 5.5 25.0 10.7
    vertex 7.999999999999998 28.0 9.3
    vertex 7.999999999999999 28.0 10.7
  endloop
endfacet
facet normal 0.7682212795973759 -0.6401843996644797 8.955973273921691e-16
  outer loop
    vertex 7.999999999999999 28.0 10.7
    vertex 7.999999999999998 28.0 9.3
    vertex 7.999999999999999 28.0 10.0
  endloop
endfacet
facet normal 1.0 -2.3499720687899246e-16 1.4099832412739471e-15
  outer loop
    vertex 5.500000000000001 25.0 9.300000000000004
    vertex 5.5 22.0 10.0
    vertex 5.499999999999999 22.0 9.3
  endloop
endfacet
facet normal 1.0 -2.3499720687899246e-16 1.4099832412739471e-15
  outer loop
    vertex 5.5 22.0 10.0
    vertex 5.500000000000001 25.0 9.300000000000004
    vertex 5.5 22.0 10.7
  endloop
endfacet
facet normal 1.0 -2.3499720687899246e-16 1.4099832412739471e-15
  outer loop
    vertex 5.5 22.0 10.7
    vertex 5.500000000000001 25.0 9.300000000000004
    vertex 5.5 25.0 10.7
  endloop
endfacet
facet normal 0.0 0.0 1.0
  outer loop
    vertex 5.5 22.0 10.7
    vertex 4.5 25.0 10.7
    vertex 4.5 22.0 10.7
  endloop
endfacet
facet normal 0.0 0.0 1.0
  outer loop
    vertex 4.5 25.0 10.7
    vertex 5.5 22.0 10.7
    vertex 5.000000000000002 25.571537451386 10.7
  endloop
endfacet
facet normal 0.0 0.0 1.0
  outer loop
    vertex 5.000000000000002 25.571537451386 10.7
    vertex 5.5 22.0 10.7
    vertex 5.5 25.0 10.7
  endloop
endfacet
facet normal 0.0 0.0 1.0
  outer loop
    vertex 5.000000000000002 25.571537451386 10.7
    vertex 5.5 25.0 10.7
    vertex 7.02371879051167 28.0 10.7
  endloop
endfacet
facet normal 0.0 0.0 1.0
  outer loop
    vertex 7.02371879051167 28.0 10.7
    vertex 5.5 25.0 10.7
    vertex 7.999999999999999 28.0 10.7
  endloop
endfacet
facet normal 0.0 0.0 1.0
  outer loop
    vertex 4.5 25.0 10.7
    vertex 2.976281209488332 28.0 10.7
    vertex 1.9999999999999991 28.0 10.7
  endloop
endfacet
facet normal 0.0 0.0 1.0
  outer loop
    vertex 2.976281209488332 28.0 10.7
    vertex 4.5 25.0 10.7
    vertex 5.000000000000002 25.571537451386 10.7
  endloop
endfacet
facet normal -0.0 1.0 -0.0
  outer loop
    vertex 1.9999999999999991 28.0 10.7
    vertex 2.976281209488332 28.0 10.0
    vertex 1.9999999999999991 28.0 10.0
  endloop
endfacet
facet normal -0.0 1.0 -0.0
  outer loop
    vertex 2.976281209488332 28.0 10.0
    vertex 1.9999999999999991 28.0 10.7
    vertex 2.976281209488332 28.0 10.7
  endloop
endfacet
facet normal 0.0 -1.0 0.0
  outer loop
    vertex 5.5 22.0 10.7
    vertex 4.5 22.0 10.0
    vertex 5.5 22.0 10.0
  endloop
endfacet
facet normal 0.0 -1.0 0.0
  outer loop
    vertex 4.5 22.0 10.0
    vertex 5.5 22.0 10.7
    vertex 4.5 22.0 10.7
  endloop
endfacet
facet normal -0.0 1.0 -0.0
  outer loop
    vertex 7.02371879051167 28.0 10.7
    vertex 7.999999999999999 28.0 10.0
    vertex 7.02371879051167 28.0 10.0
  endloop
endfacet
facet normal -0.0 1.0 -0.0
  outer loop
    vertex 7.999999999999999 28.0 10.0
    vertex 7.02371879051167 28.0 10.7
    vertex 7.999999999999999 28.0 10.7
  endloop
endfacet
facet normal -0.0 -0.0 1.0
  outer loop
    vertex 10.0 9.999999999999998 20.0
    vertex 0.0 20.0 20.0
    vertex 0.0 9.999999999999998 20.0
  endloop
endfacet
facet normal -0.0 -0.0 1.0
  outer loop
    vertex 0.0 20.0 20.0
    vertex 10.0 9.999999999999998 20.0
    vertex 7.401923788646684 13.5 20.0
  endloop
endfacet
facet normal -0.0 -0.0 1.0
  outer loop
    vertex 0.0 20.0 20.0
    vertex 7.401923788646684 13.5 20.0
    vertex 7.102222521132795 14.223542864692435 20.0
  endloop
endfacet
facet normal -0.0 -0.0 1.0
  outer loop
    vertex 0.0 20.0 20.0
    vertex 7.102222521132795 14.223542864692435 20.0
    vertex 7.0 15.0 20.0
  endloop
endfacet
facet normal -0.0 -0.0 1.0
  outer loop
    vertex 7.401923788646684 13.5 20.0
    vertex 10.0 9.999999999999998 20.0
    vertex 7.878679656440359 12.878679656440358 20.0
  endloop
endfacet
facet normal -0.0 -0.0 1.0
  outer loop
    vertex 7.878679656440359 12.878679656440358 20.0
    vertex 10.0 9.999999999999998 20.0
    vertex 8.500000000000002 12.401923788646684 20.0
  endloop
endfacet
facet normal -0.0 -0.0 1.0
  outer loop
    vertex 8.500000000000002 12.401923788646684 20.0
    vertex 10.0 9.999999999999998 20.0
    vertex 9.223542864692439 12.102222521132795 20.0
  endloop
endfacet
facet normal -0.0 -0.0 1.0
  outer loop
    vertex 9.223542864692439 12.102222521132795 20.0
    vertex 10.0 9.999999999999998 20.0
    vertex 10.0 12.0 20.0
  endloop
endfacet
facet normal -0.0 -0.0 1.0
  outer loop
    vertex 0.0 20.0 20.0
    vertex 7.401923788646682 16.499999999999996 20.0
    vertex 10.0 20.0 20.0
  endloop
endfacet
facet normal -0.0 -0.0 1.0
  outer loop
    vertex 7.401923788646682 16.499999999999996 20.0
    vertex 0.0 20.0 20.0
    vertex 7.102222521132795 15.776457135307561 20.0
  endloop
endfacet
facet normal -0.0 -0.0 1.0
  outer loop
    vertex 7.102222521132795 15.776457135307561 20.0
    vertex 0.0 20.0 20.0
    vertex 7.0 15.0 20.0
  endloop
endfacet
facet normal -0.0 -0.0 1.0
  outer loop
    vertex 10.0 20.0 20.0
    vertex 7.401923788646682 16.499999999999996 20.0
    vertex 7.878679656440356 17.121320343559642 20.0
  endloop
endfacet
facet normal -0.0 -0.0 1.0
  outer loop
    vertex 10.0 20.0 20.0
    vertex 7.878679656440356 17.121320343559642 20.0
    vertex 8.499999999999998 17.598076211353316 20.0
  endloop
endfacet
facet normal -0.0 -0.0 1.0
  outer loop
    vertex 10.0 20.0 20.0
    vertex 8.499999999999998 17.598076211353316 20.0
    vertex 9.223542864692435 17.897777478867205 20.0
  endloop
endfacet
facet normal -0.0 -0.0 1.0
  outer loop
    vertex 10.0 20.0 20.0
    vertex 9.223542864692435 17.897777478867205 20.0
    vertex 10.0 18.0 20.0
  endloop
endfacet
facet normal 0.0 0.0 1.0
  outer loop
    vertex 20.0 9.999999999999998 15.0
    vertex 10.0 12.0 15.0
    vertex 10.0 9.999999999999998 15.0
  endloop
endfacet
facet normal 0.0 0.0 1.0
  outer loop
    vertex 10.0 12.0 15.0
    vertex 20.0 9.999999999999998 15.0
    vertex 10.776457135307563 12.102222521132795 15.0
  endloop
endfacet
facet normal 0.0 0.0 1.0
  outer loop
    vertex 10.776457135307563 12.102222521132795 15.0
    vertex 20.0 9.999999999999998 15.0
    vertex 11.500000000000002 12.401923788646686 15.0
  endloop
endfacet
facet normal 0.0 0.0 1.0
  outer loop
    vertex 11.500000000000002 12.401923788646686 15.0
    vertex 20.0 9.999999999999998 15.0
    vertex 12.121320343559644 12.878679656440358 15.0
  endloop
endfacet
facet normal 0.0 0.0 1.0
  outer loop
    vertex 12.121320343559644 12.878679656440358 15.0
    vertex 20.0 9.999999999999998 15.0
    vertex 12.598076211353316 13.5 15.0
  endloop
endfacet
facet normal 0.0 0.0 1.0
  outer loop
    vertex 12.598076211353316 13.5 15.0
    vertex 20.0 9.999999999999998 15.0
    vertex 12.897777478867207 14.223542864692439 15.0
  endloop
endfacet
facet normal 0.0 0.0 1.0
  outer loop
    vertex 12.897777478867207 14.223542864692439 15.0
    vertex 20.0 9.999999999999998 15.0
    vertex 12.999999999999998 15.0 15.0
  endloop
endfacet
facet normal 0.0 0.0 1.0
  outer loop
    vertex 10.776457135307563 17.897777478867205 15.0
    vertex 10.0 20.0 15.0
    vertex 10.0 18.0 15.0
  endloop
endfacet
facet normal 0.0 0.0 1.0
  outer loop
    vertex 10.0 20.0 15.0
    vertex 10.776457135307563 17.897777478867205 15.0
    vertex 20.0 20.0 15.0
  endloop
endfacet
facet normal 0.0 0.0 1.0
  outer loop
    vertex 20.0 20.0 15.0
    vertex 10.776457135307563 17.897777478867205 15.0
    vertex 11.5 17.598076211353316 15.0
  endloop
endfacet
facet normal 0.0 0.0 1.0
  outer loop
    vertex 20.0 20.0 15.0
    vertex 11.5 17.598076211353316 15.0
    vertex 12.121320343559642 17.121320343559642 15.0
  endloop
endfacet
facet normal 0.0 0.0 1.0
  outer loop
    vertex 20.0 20.0 15.0
    vertex 12.121320343559642 17.121320343559642 15.0
    vertex 12.598076211353316 16.5 15.0
  endloop
endfacet
facet normal 0.0 0.0 1.0
  outer loop
    vertex 20.0 20.0 15.0
    vertex 12.598076211353316 16.5 15.0
    vertex 12.897777478867203 15.776457135307563 15.0
  endloop
endfacet
facet normal 0.0 0.0 1.0
  outer loop
    vertex 20.0 20.0 15.0
    vertex 12.897777478867203 15.776457135307563 15.0
    vertex 12.999999999999998 15.0 15.0
  endloop
endfacet
facet normal 0.0 0.0 1.0
  outer loop
    vertex 20.0 20.0 15.0
    vertex 12.999999999999998 15.0 15.0
    vertex 20.0 9.999999999999998 15.0
  endloop
endfacet
facet normal 1.0 0.0 0.0
  outer loop
    vertex 10.0 20.0 15.0
    vertex 10.0 18.0 20.0
    vertex 10.0 18.0 15.0
  endloop
endfacet
facet normal 1.0 0.0 0.0
  outer loop
    vertex 10.0 18.0 20.0
    vertex 10.0 20.0 15.0
    vertex 10.0 20.0 20.0
  endloop
endfacet
facet normal 1.0 0.0 0.0
  outer loop
    vertex 10.0 12.0 15.0
    vertex 10.0 9.999999999999998 20.0
    vertex 10.0 9.999999999999998 15.0
  endloop
endfacet
facet normal 1.0 0.0 0.0
  outer loop
    vertex 10.0 9.999999999999998 20.0
    vertex 10.0 12.0 15.0
    vertex 10.0 12.0 20.0
  endloop
endfacet
facet normal -1.1544465544335687e-16 -1.8353517145852592e-16 1.0
  outer loop
    vertex 7.9999999999999964 1.9999999999999942 39.3
    vertex 1.9999999999999967 2.9999999999999942 39.3
    vertex 1.9999999999999967 1.9999999999999942 39.3
  endloop
endfacet
facet normal -1.1544465544335687e-16 -1.8353517145852592e-16 1.0
  outer loop
    vertex 1.9999999999999967 2.9999999999999942 39.3
    vertex 7.9999999999999964 1.9999999999999942 39.3
    vertex 3.562049935181325 2.999999999999994 39.3
  endloop
endfacet
facet normal -1.1544465544335687e-16 -1.8353517145852592e-16 1.0
  outer loop
    vertex 3.562049935181325 2.999999999999994 39.3
    vertex 7.9999999999999964 1.9999999999999942 39.3
    vertex 7.9999999999999964 2.9999999999999942 39.3
  endloop
endfacet
facet normal -1.1544465544335687e-16 -1.8353517145852592e-16 1.0
  outer loop
    vertex 3.562049935181325 2.999999999999994 39.3
    vertex 6.799999999999996 6.999999999999994 39.300000000000004
    vertex 1.9999999999999967 2.9999999999999942 39.3
  endloop
endfacet
facet normal -1.1544465544335687e-16 -1.8353517145852592e-16 1.0
  outer loop
    vertex 6.799999999999996 6.999999999999994 39.300000000000004
    vertex 3.562049935181325 2.999999999999994 39.3
    vertex 7.9999999999999964 6.69829172068222 39.3
  endloop
endfacet
facet normal -1.1544465544335687e-16 -1.8353517145852592e-16 1.0
  outer loop
    vertex 6.799999999999996 6.999999999999994 39.300000000000004
    vertex 1.9999999999999962 7.999999999999994 39.3
    vertex 1.9999999999999962 6.999999999999994 39.3
  endloop
endfacet
facet normal -1.1544465544335687e-16 -1.8353517145852592e-16 1.0
  outer loop
    vertex 1.9999999999999962 7.999999999999994 39.3
    vertex 6.799999999999996 6.999999999999994 39.300000000000004
    vertex 7.9999999999999964 7.999999999999994 39.3
  endloop
endfacet
facet normal -1.1544465544335687e-16 -1.8353517145852592e-16 1.0
  outer loop
    vertex 7.9999999999999964 7.999999999999994 39.3
    vertex 6.799999999999996 6.999999999999994 39.300000000000004
    vertex 7.9999999999999964 6.69829172068222 39.3
  endloop
endfacet
facet normal -0.9999999999999999 0.0 -1.1544465544335687e-16
  outer loop
    vertex 7.9999999999999964 2.9999999999999942 39.99999999999999
    vertex 7.9999999999999964 1.9999999999999942 39.3
    vertex 7.9999999999999964 1.9999999999999942 39.99999999999999
  endloop
endfacet
facet normal -0.9999999999999999 0.0 -1.1544465544335687e-16
  outer loop
    vertex 7.9999999999999964 1.9999999999999942 39.3
    vertex 7.9999999999999964 2.9999999999999942 39.99999999999999
    vertex 7.9999999999999964 2.9999999999999942 39.3
  endloop
endfacet
facet normal 7.942761977266404e-17 -1.0 -1.8353517145852592e-16
  outer loop
    vertex 7.9999999999999964 2.9999999999999942 39.99999999999999
    vertex 3.562049935181325 2.999999999999994 39.3
    vertex 7.9999999999999964 2.9999999999999942 39.3
  endloop
endfacet
facet normal 7.942761977266404e-17 -1.0 -1.8353517145852592e-16
  outer loop
    vertex 3.562049935181325 2.999999999999994 39.3
    vertex 7.9999999999999964 2.9999999999999942 39.99999999999999
    vertex 3.562049935181325 2.999999999999994 39.99999999999999
  endloop
endfacet
facet normal -0.6401843996644798 0.7682212795973759 6.708975682951442e-17
  outer loop
    vertex 3.562049935181325 2.999999999999994 39.99999999999999
    vertex 7.9999999999999964 6.69829172068222 39.3
    vertex 3.562049935181325 2.999999999999994 39.3
  endloop
endfacet
facet normal -0.6401843996644798 0.7682212795973759 6.708975682951442e-17
  outer loop
    vertex 7.9999999999999964 6.69829172068222 39.3
    vertex 3.562049935181325 2.999999999999994 39.99999999999999
    vertex 7.9999999999999964 6.69829172068222 39.99999999999999
  endloop
endfacet
facet normal -0.9999999999999999 0.0 -1.1544465544335687e-16
  outer loop
    vertex 7.9999999999999964 7.999999999999994 39.99999999999999
    vertex 7.9999999999999964 6.69829172068222 39.3
    vertex 7.9999999999999964 6.69829172068222 39.99999999999999
  endloop
endfacet
facet normal -0.9999999999999999 0.0 -1.1544465544335687e-16
  outer loop
    vertex 7.9999999999999964 6.69829172068222 39.3
    vertex 7.9999999999999964 7.999999999999994 39.99999999999999
    vertex 7.9999999999999964 7.999999999999994 39.3
  endloop
endfacet
facet normal -0.0 -0.9999999999999999 -1.8353517145852592e-16
  outer loop
    vertex 7.9999999999999964 7.999999999999994 39.99999999999999
    vertex 1.9999999999999962 7.999999999999994 39.3
    vertex 7.9999999999999964 7.999999999999994 39.3
  endloop
endfacet
facet normal -0.0 -0.9999999999999999 -1.8353517145852592e-16
  outer loop
    vertex 1.9999999999999962 7.999999999999994 39.3
    vertex 7.9999999999999964 7.999999999999994 39.99999999999999
    vertex 1.9999999999999962 7.999999999999994 39.99999999999999
  endloop
endfacet
facet normal 1.0 0.0 1.1544465544335687e-16
  outer loop
    vertex 1.9999999999999962 7.999999999999994 39.3
    vertex 1.9999999999999962 6.999999999999994 39.99999999999999
    vertex 1.9999999999999962 6.999999999999994 39.3
  endloop
endfacet
facet normal 1.0 0.0 1.1544465544335687e-16
  outer loop
    vertex 1.9999999999999962 6.999999999999994 39.99999999999999
    vertex 1.9999999999999962 7.999999999999994 39.3
    vertex 1.9999999999999962 7.999999999999994 39.99999999999999
  endloop
endfacet
facet normal -2.1565126328405195e-31 1.0 1.8353517145852594e-16
  outer loop
    vertex 1.9999999999999962 6.999999999999994 39.99999999999999
    vertex 6.799999999999996 6.999999999999994 39.300000000000004
    vertex 1.9999999999999962 6.999999999999994 39.3
  endloop
endfacet
facet normal -2.1565126328405195e-31 1.0 1.8353517145852594e-16
  outer loop
    vertex 6.799999999999996 6.999999999999994 39.300000000000004
    vertex 1.9999999999999962 6.999999999999994 39.99999999999999
    vertex 6.799999999999996 6.999999999999994 40.0
  endloop
endfacet
facet normal 0.6401843996644798 -0.7682212795973759 -6.708975682951442e-17
  outer loop
    vertex 6.799999999999996 6.999999999999994 39.300000000000004
    vertex 1.9999999999999967 2.9999999999999942 39.99999999999999
    vertex 1.9999999999999967 2.9999999999999942 39.3
  endloop
endfacet
facet normal 0.6401843996644798 -0.7682212795973759 -6.708975682951442e-17
  outer loop
    vertex 1.9999999999999967 2.9999999999999942 39.99999999999999
    vertex 6.799999999999996 6.999999999999994 39.300000000000004
    vertex 6.799999999999996 6.999999999999994 40.0
  endloop
endfacet
facet normal 0.9999999999999999 0.0 1.1544465544335687e-16
  outer loop
    vertex 1.9999999999999967 2.9999999999999942 39.3
    vertex 1.9999999999999967 1.9999999999999942 39.99999999999999
    vertex 1.9999999999999967 1.9999999999999942 39.3
  endloop
endfacet
facet normal 0.9999999999999999 0.0 1.1544465544335687e-16
  outer loop
    vertex 1.9999999999999967 1.9999999999999942 39.99999999999999
    vertex 1.9999999999999967 2.9999999999999942 39.3
    vertex 1.9999999999999967 2.9999999999999942 39.99999999999999
  endloop
endfacet
facet normal -0.0 0.9999999999999999 1.8353517145852592e-16
  outer loop
    vertex 1.9999999999999967 1.9999999999999942 39.99999999999999
    vertex 7.9999999999999964 1.9999999999999942 39.3
    vertex 1.9999999999999967 1.9999999999999942 39.3
  endloop
endfacet
facet normal -0.0 0.9999999999999999 1.8353517145852592e-16
  outer loop
    vertex 7.9999999999999964 1.9999999999999942 39.3
    vertex 1.9999999999999967 1.9999999999999942 39.99999999999999
    vertex 7.9999999999999964 1.9999999999999942 39.99999999999999
  endloop
endfacet
facet normal 1.1796783821309519e-33 5.806073649678767e-16 1.0
  outer loop
    vertex 7.02371879051167 28.0 9.3
    vertex 2.976281209488332 28.0 9.3
    vertex 5.000000000000002 25.571537451386 9.3
  endloop
endfacet
facet normal -0.0 -1.0 5.806073649678768e-16
  outer loop
    vertex 7.02371879051167 28.0 10.0
    vertex 2.976281209488332 28.0 9.3
    vertex 7.02371879051167 28.0 9.3
  endloop
endfacet
facet normal -0.0 -1.0 5.806073649678768e-16
  outer loop
    vertex 2.976281209488332 28.0 9.3
    vertex 7.02371879051167 28.0 10.0
    vertex 2.976281209488332 28.0 10.0
  endloop
endfacet
facet normal 1.015187933717243e-15 -2.8199664825478977e-16 1.0
  outer loop
    vertex 7.999999999999998 22.0 9.3
    vertex 5.500000000000001 25.0 9.300000000000004
    vertex 5.499999999999999 22.0 9.3
  endloop
endfacet
facet normal 1.015187933717243e-15 -2.8199664825478977e-16 1.0
  outer loop
    vertex 5.500000000000001 25.0 9.300000000000004
    vertex 7.999999999999998 22.0 9.3
    vertex 7.999999999999998 28.0 9.3
  endloop
endfacet
facet normal -0.9999999999999999 -0.0 1.0151879337172428e-15
  outer loop
    vertex 7.999999999999999 28.0 10.0
    vertex 7.999999999999998 22.0 9.3
    vertex 7.999999999999999 22.0 10.0
  endloop
endfacet
facet normal -0.9999999999999999 -0.0 1.0151879337172428e-15
  outer loop
    vertex 7.999999999999998 22.0 9.3
    vertex 7.999999999999999 28.0 10.0
    vertex 7.999999999999998 28.0 9.3
  endloop
endfacet
facet normal -0.0 0.9999999999999999 2.819966482547897e-16
  outer loop
    vertex 5.5 22.0 10.0
    vertex 7.999999999999998 22.0 9.3
    vertex 5.499999999999999 22.0 9.3
  endloop
endfacet
facet normal -0.0 0.9999999999999999 2.819966482547897e-16
  outer loop
    vertex 7.999999999999998 22.0 9.3
    vertex 5.5 22.0 10.0
    vertex 7.999999999999999 22.0 10.0
  endloop
endfacet
facet normal 6.76791955811495e-16 1.8799776550319313e-16 1.0
  outer loop
    vertex 4.499999999999999 22.0 9.3
    vertex 1.999999999999999 28.0 9.3
    vertex 1.999999999999999 22.0 9.3
  endloop
endfacet
facet normal 6.76791955811495e-16 1.8799776550319313e-16 1.0
  outer loop
    vertex 1.999999999999999 28.0 9.3
    vertex 4.499999999999999 22.0 9.3
    vertex 4.499999999999999 25.0 9.299999999999997
  endloop
endfacet
facet normal -0.0 1.0 -1.8799776550319313e-16
  outer loop
    vertex 1.9999999999999991 22.0 10.0
    vertex 4.499999999999999 22.0 9.3
    vertex 1.999999999999999 22.0 9.3
  endloop
endfacet
facet normal -0.0 1.0 -1.8799776550319313e-16
  outer loop
    vertex 4.499999999999999 22.0 9.3
    vertex 1.9999999999999991 22.0 10.0
    vertex 4.5 22.0 10.0
  endloop
endfacet
facet normal 0.9999999999999999 -0.0 -6.767919558114949e-16
  outer loop
    vertex 1.999999999999999 28.0 9.3
    vertex 1.9999999999999991 22.0 10.0
    vertex 1.999999999999999 22.0 9.3
  endloop
endfacet
facet normal 0.9999999999999999 -0.0 -6.767919558114949e-16
  outer loop
    vertex 1.9999999999999991 22.0 10.0
    vertex 1.999999999999999 28.0 9.3
    vertex 1.9999999999999991 28.0 10.0
  endloop
endfacet
endsolid testprint
