solid OpenSCAD_Model
  facet normal -0.979071 -0.20352 0
    outer loop
      vertex -0.163 67.465 0
      vertex -0.163 67.465 10
      vertex -0.612 69.625 0
    endloop
  endfacet
  facet normal -0.979071 -0.20352 0
    outer loop
      vertex -0.612 69.625 0
      vertex -0.163 67.465 10
      vertex -0.612 69.625 10
    endloop
  endfacet
  facet normal -0.842489 -0.538713 0
    outer loop
      vertex 1.05 65.568 0
      vertex 1.05 65.568 10
      vertex -0.163 67.465 0
    endloop
  endfacet
  facet normal -0.842489 -0.538713 0
    outer loop
      vertex -0.163 67.465 0
      vertex 1.05 65.568 10
      vertex -0.163 67.465 10
    endloop
  endfacet
  facet normal 0 0 -1
    outer loop
      vertex -0.246 71.614 0
      vertex 0.762 73.401 0
      vertex -0.612 69.625 0
    endloop
  endfacet
  facet normal 0 0 -1
    outer loop
      vertex -0.612 69.625 0
      vertex 0.762 73.401 0
      vertex 2.275 74.813 0
    endloop
  endfacet
  facet normal 0 0 -1
    outer loop
      vertex -0.612 69.625 0
      vertex 2.275 74.813 0
      vertex 4.156 75.677 0
    endloop
  endfacet
  facet normal 0 0 -1
    outer loop
      vertex -0.612 69.625 0
      vertex 4.156 75.677 0
      vertex 62.564 78.877 0
    endloop
  endfacet
  facet normal 0 0 -1
    outer loop
      vertex -0.612 69.625 0
      vertex 62.564 78.877 0
      vertex 121.253 82.051 0
    endloop
  endfacet
  facet normal 0 0 -1
    outer loop
      vertex 129.57 86.277 0
      vertex 132.101 88.456 0
      vertex 134.672 90.317 0
    endloop
  endfacet
  facet normal 0 0 -1
    outer loop
      vertex 129.57 86.277 0
      vertex 134.672 90.317 0
      vertex 127.613 84.642 0
    endloop
  endfacet
  facet normal 0 0 -1
    outer loop
      vertex 127.613 84.642 0
      vertex 134.672 90.317 0
      vertex 137.261 91.844 0
    endloop
  endfacet
  facet normal 0 0 -1
    outer loop
      vertex 127.613 84.642 0
      vertex 137.261 91.844 0
      vertex 139.847 93.024 0
    endloop
  endfacet
  facet normal 0 0 -1
    outer loop
      vertex 127.613 84.642 0
      vertex 139.847 93.024 0
      vertex 143.565 94.02 0
    endloop
  endfacet
  facet normal 0 0 -1
    outer loop
      vertex 127.613 84.642 0
      vertex 143.565 94.02 0
      vertex 125.672 83.442 0
    endloop
  endfacet
  facet normal 0 0 -1
    outer loop
      vertex 125.672 83.442 0
      vertex 143.565 94.02 0
      vertex 147.249 94.17 0
    endloop
  endfacet
  facet normal 0 0 -1
    outer loop
      vertex 125.672 83.442 0
      vertex 147.249 94.17 0
      vertex 150.789 93.534 0
    endloop
  endfacet
  facet normal 0 0 -1
    outer loop
      vertex 125.672 83.442 0
      vertex 150.789 93.534 0
      vertex 123.601 82.604 0
    endloop
  endfacet
  facet normal 0 0 -1
    outer loop
      vertex 123.601 82.604 0
      vertex 150.789 93.534 0
      vertex 154.079 92.171 0
    endloop
  endfacet
  facet normal 0 0 -1
    outer loop
      vertex 123.601 82.604 0
      vertex 154.079 92.171 0
      vertex 157.008 90.139 0
    endloop
  endfacet
  facet normal 0 0 -1
    outer loop
      vertex 123.601 82.604 0
      vertex 157.008 90.139 0
      vertex 121.253 82.051 0
    endloop
  endfacet
  facet normal 0 0 -1
    outer loop
      vertex 121.253 82.051 0
      vertex 157.008 90.139 0
      vertex 159.47 87.5 0
    endloop
  endfacet
  facet normal 0 0 -1
    outer loop
      vertex 121.253 82.051 0
      vertex 159.47 87.5 0
      vertex 161.355 84.31 0
    endloop
  endfacet
  facet normal 0 0 -1
    outer loop
      vertex 121.253 82.051 0
      vertex 161.355 84.31 0
      vertex -0.612 69.625 0
    endloop
  endfacet
  facet normal 0 0 -1
    outer loop
      vertex -0.612 69.625 0
      vertex 161.355 84.31 0
      vertex 162.555 80.631 0
    endloop
  endfacet
  facet normal 0 0 -1
    outer loop
      vertex 147.693 79.23 0
      vertex 162.555 80.631 0
      vertex 162.966 76.812 0
    endloop
  endfacet
  facet normal 0 0 -1
    outer loop
      vertex 147.298 79.345 0
      vertex 162.555 80.631 0
      vertex 147.693 79.23 0
    endloop
  endfacet
  facet normal 0 0 -1
    outer loop
      vertex 146.537 79.058 0
      vertex -0.612 69.625 0
      vertex 147.298 79.345 0
    endloop
  endfacet
  facet normal 0 0 -1
    outer loop
      vertex -0.612 69.625 0
      vertex 162.555 80.631 0
      vertex 147.298 79.345 0
    endloop
  endfacet
  facet normal 0 0 -1
    outer loop
      vertex 135.85 59.845 0
      vertex -0.612 69.625 0
      vertex 136.405 72.783 0
    endloop
  endfacet
  facet normal 0 0 -1
    outer loop
      vertex -0.612 69.625 0
      vertex 146.537 79.058 0
      vertex 141.822 76.186 0
    endloop
  endfacet
  facet normal 0 0 -1
    outer loop
      vertex 130.737 46.284 0
      vertex 136.218 45.073 0
      vertex 133.716 45.373 0
    endloop
  endfacet
  facet normal 0 0 -1
    outer loop
      vertex -0.612 69.625 0
      vertex 135.85 59.845 0
      vertex 143.333 55.517 0
    endloop
  endfacet
  facet normal 0 0 -1
    outer loop
      vertex 118.31 56.412 0
      vertex 143.333 55.517 0
      vertex 150.958 51.045 0
    endloop
  endfacet
  facet normal 0 0 -1
    outer loop
      vertex 121.016 54.677 0
      vertex 150.958 51.045 0
      vertex 150.474 50.383 0
    endloop
  endfacet
  facet normal 0 0 -1
    outer loop
      vertex 125.6 49.623 0
      vertex 148.813 49.195 0
      vertex 144.088 46.613 0
    endloop
  endfacet
  facet normal 0 0 -1
    outer loop
      vertex 121.016 54.677 0
      vertex 148.813 49.195 0
      vertex 123.35 52.11 0
    endloop
  endfacet
  facet normal 0 0 -1
    outer loop
      vertex 128.047 47.691 0
      vertex 141.523 45.707 0
      vertex 138.861 45.189 0
    endloop
  endfacet
  facet normal 0 0 -1
    outer loop
      vertex 130.737 46.284 0
      vertex 138.861 45.189 0
      vertex 136.218 45.073 0
    endloop
  endfacet
  facet normal 0 0 -1
    outer loop
      vertex 125.6 49.623 0
      vertex 141.523 45.707 0
      vertex 128.047 47.691 0
    endloop
  endfacet
  facet normal 0 0 -1
    outer loop
      vertex 128.047 47.691 0
      vertex 138.861 45.189 0
      vertex 130.737 46.284 0
    endloop
  endfacet
  facet normal 0 0 -1
    outer loop
      vertex 125.6 49.623 0
      vertex 144.088 46.613 0
      vertex 141.523 45.707 0
    endloop
  endfacet
  facet normal 0 0 -1
    outer loop
      vertex 123.35 52.11 0
      vertex 148.813 49.195 0
      vertex 125.6 49.623 0
    endloop
  endfacet
  facet normal 0 0 -1
    outer loop
      vertex 121.016 54.677 0
      vertex 150.474 50.383 0
      vertex 148.813 49.195 0
    endloop
  endfacet
  facet normal 0 0 -1
    outer loop
      vertex 118.31 56.412 0
      vertex 150.958 51.045 0
      vertex 121.016 54.677 0
    endloop
  endfacet
  facet normal 0 0 -1
    outer loop
      vertex 115.283 57.495 0
      vertex 143.333 55.517 0
      vertex 118.31 56.412 0
    endloop
  endfacet
  facet normal 0 0 -1
    outer loop
      vertex 59.86 60.566 0
      vertex -0.612 69.625 0
      vertex 115.283 57.495 0
    endloop
  endfacet
  facet normal 0 0 -1
    outer loop
      vertex -0.612 69.625 0
      vertex 143.333 55.517 0
      vertex 115.283 57.495 0
    endloop
  endfacet
  facet normal 0 0 -1
    outer loop
      vertex 4.961 63.458 0
      vertex -0.612 69.625 0
      vertex 59.86 60.566 0
    endloop
  endfacet
  facet normal 0 0 -1
    outer loop
      vertex -0.612 69.625 0
      vertex 4.961 63.458 0
      vertex 2.826 64.158 0
    endloop
  endfacet
  facet normal 0 0 -1
    outer loop
      vertex -0.612 69.625 0
      vertex 2.826 64.158 0
      vertex 1.05 65.568 0
    endloop
  endfacet
  facet normal 0 0 -1
    outer loop
      vertex -0.612 69.625 0
      vertex 1.05 65.568 0
      vertex -0.163 67.465 0
    endloop
  endfacet
  facet normal 0 0 -1
    outer loop
      vertex 147.693 79.23 0
      vertex 162.966 76.812 0
      vertex 162.862 72.82 0
    endloop
  endfacet
  facet normal 0 0 -1
    outer loop
      vertex 147.693 79.23 0
      vertex 162.862 72.82 0
      vertex 162.559 70.764 0
    endloop
  endfacet
  facet normal 0 0 -1
    outer loop
      vertex 136.405 72.783 0
      vertex -0.612 69.625 0
      vertex 141.822 76.186 0
    endloop
  endfacet
  facet normal -0.983488 0.180974 0
    outer loop
      vertex -0.612 69.625 10
      vertex -0.246 71.614 10
      vertex -0.612 69.625 0
    endloop
  endfacet
  facet normal -0.983488 0.180974 0
    outer loop
      vertex -0.612 69.625 0
      vertex -0.246 71.614 10
      vertex -0.246 71.614 0
    endloop
  endfacet
  facet normal 0 0 1
    outer loop
      vertex -0.612 69.625 10
      vertex -0.163 67.465 10
      vertex 1.05 65.568 10
    endloop
  endfacet
  facet normal 0 0 1
    outer loop
      vertex 4.961 63.458 10
      vertex -0.612 69.625 10
      vertex 2.826 64.158 10
    endloop
  endfacet
  facet normal 0 0 1
    outer loop
      vertex 2.826 64.158 10
      vertex -0.612 69.625 10
      vertex 1.05 65.568 10
    endloop
  endfacet
  facet normal 0 0 1
    outer loop
      vertex 59.86 60.566 10
      vertex -0.612 69.625 10
      vertex 4.961 63.458 10
    endloop
  endfacet
  facet normal 0 0 1
    outer loop
      vertex 115.283 57.495 10
      vertex -0.612 69.625 10
      vertex 59.86 60.566 10
    endloop
  endfacet
  facet normal 0 0 1
    outer loop
      vertex 143.333 55.517 10
      vertex -0.612 69.625 10
      vertex 115.283 57.495 10
    endloop
  endfacet
  facet normal 0 0 1
    outer loop
      vertex 148.813 49.195 10
      vertex 115.283 57.495 10
      vertex 118.31 56.412 10
    endloop
  endfacet
  facet normal 0 0 1
    outer loop
      vertex 136.218 45.073 10
      vertex 118.31 56.412 10
      vertex 121.016 54.677 10
    endloop
  endfacet
  facet normal 0 0 1
    outer loop
      vertex 128.047 47.691 10
      vertex 121.016 54.677 10
      vertex 123.35 52.11 10
    endloop
  endfacet
  facet normal 0 0 1
    outer loop
      vertex 128.047 47.691 10
      vertex 123.35 52.11 10
      vertex 125.6 49.623 10
    endloop
  endfacet
  facet normal 0 0 1
    outer loop
      vertex 130.737 46.284 10
      vertex 121.016 54.677 10
      vertex 128.047 47.691 10
    endloop
  endfacet
  facet normal 0 0 1
    outer loop
      vertex 133.716 45.373 10
      vertex 121.016 54.677 10
      vertex 130.737 46.284 10
    endloop
  endfacet
  facet normal 0 0 1
    outer loop
      vertex 136.218 45.073 10
      vertex 121.016 54.677 10
      vertex 133.716 45.373 10
    endloop
  endfacet
  facet normal 0 0 1
    outer loop
      vertex 138.861 45.189 10
      vertex 118.31 56.412 10
      vertex 136.218 45.073 10
    endloop
  endfacet
  facet normal 0 0 1
    outer loop
      vertex 141.523 45.707 10
      vertex 118.31 56.412 10
      vertex 138.861 45.189 10
    endloop
  endfacet
  facet normal 0 0 1
    outer loop
      vertex 144.088 46.613 10
      vertex 118.31 56.412 10
      vertex 141.523 45.707 10
    endloop
  endfacet
  facet normal 0 0 1
    outer loop
      vertex 148.813 49.195 10
      vertex 118.31 56.412 10
      vertex 144.088 46.613 10
    endloop
  endfacet
  facet normal 0 0 1
    outer loop
      vertex 150.474 50.383 10
      vertex 115.283 57.495 10
      vertex 148.813 49.195 10
    endloop
  endfacet
  facet normal 0 0 1
    outer loop
      vertex 150.958 51.045 10
      vertex 115.283 57.495 10
      vertex 150.474 50.383 10
    endloop
  endfacet
  facet normal 0 0 1
    outer loop
      vertex 143.333 55.517 10
      vertex 115.283 57.495 10
      vertex 150.958 51.045 10
    endloop
  endfacet
  facet normal 0 0 1
    outer loop
      vertex 135.85 59.845 10
      vertex -0.612 69.625 10
      vertex 143.333 55.517 10
    endloop
  endfacet
  facet normal 0 0 1
    outer loop
      vertex 136.405 72.783 10
      vertex -0.612 69.625 10
      vertex 135.85 59.845 10
    endloop
  endfacet
  facet normal 0 0 1
    outer loop
      vertex 141.822 76.186 10
      vertex -0.612 69.625 10
      vertex 136.405 72.783 10
    endloop
  endfacet
  facet normal 0 0 1
    outer loop
      vertex 146.537 79.058 10
      vertex -0.612 69.625 10
      vertex 141.822 76.186 10
    endloop
  endfacet
  facet normal 0 0 1
    outer loop
      vertex 147.298 79.345 10
      vertex -0.612 69.625 10
      vertex 146.537 79.058 10
    endloop
  endfacet
  facet normal 0 0 1
    outer loop
      vertex 162.555 80.631 10
      vertex -0.612 69.625 10
      vertex 147.298 79.345 10
    endloop
  endfacet
  facet normal 0 0 1
    outer loop
      vertex 162.966 76.812 10
      vertex 147.298 79.345 10
      vertex 147.693 79.23 10
    endloop
  endfacet
  facet normal 0 0 1
    outer loop
      vertex 162.862 72.82 10
      vertex 147.693 79.23 10
      vertex 162.559 70.764 10
    endloop
  endfacet
  facet normal 0 0 1
    outer loop
      vertex 162.966 76.812 10
      vertex 147.693 79.23 10
      vertex 162.862 72.82 10
    endloop
  endfacet
  facet normal 0 0 1
    outer loop
      vertex 162.555 80.631 10
      vertex 147.298 79.345 10
      vertex 162.966 76.812 10
    endloop
  endfacet
  facet normal 0 0 1
    outer loop
      vertex 161.355 84.31 10
      vertex -0.612 69.625 10
      vertex 162.555 80.631 10
    endloop
  endfacet
  facet normal 0 0 1
    outer loop
      vertex 121.253 82.051 10
      vertex -0.612 69.625 10
      vertex 161.355 84.31 10
    endloop
  endfacet
  facet normal 0 0 1
    outer loop
      vertex 127.613 84.642 10
      vertex 125.672 83.442 10
      vertex 159.47 87.5 10
    endloop
  endfacet
  facet normal 0 0 1
    outer loop
      vertex 132.101 88.456 10
      vertex 129.57 86.277 10
      vertex 157.008 90.139 10
    endloop
  endfacet
  facet normal 0 0 1
    outer loop
      vertex 137.261 91.844 10
      vertex 134.672 90.317 10
      vertex 150.789 93.534 10
    endloop
  endfacet
  facet normal 0 0 1
    outer loop
      vertex 143.565 94.02 10
      vertex 139.847 93.024 10
      vertex 147.249 94.17 10
    endloop
  endfacet
  facet normal 0 0 1
    outer loop
      vertex 147.249 94.17 10
      vertex 137.261 91.844 10
      vertex 150.789 93.534 10
    endloop
  endfacet
  facet normal 0 0 1
    outer loop
      vertex 150.789 93.534 10
      vertex 134.672 90.317 10
      vertex 154.079 92.171 10
    endloop
  endfacet
  facet normal 0 0 1
    outer loop
      vertex 154.079 92.171 10
      vertex 132.101 88.456 10
      vertex 157.008 90.139 10
    endloop
  endfacet
  facet normal 0 0 1
    outer loop
      vertex 157.008 90.139 10
      vertex 129.57 86.277 10
      vertex 159.47 87.5 10
    endloop
  endfacet
  facet normal 0 0 1
    outer loop
      vertex 129.57 86.277 10
      vertex 127.613 84.642 10
      vertex 159.47 87.5 10
    endloop
  endfacet
  facet normal 0 0 1
    outer loop
      vertex 159.47 87.5 10
      vertex 125.672 83.442 10
      vertex 161.355 84.31 10
    endloop
  endfacet
  facet normal 0 0 1
    outer loop
      vertex 125.672 83.442 10
      vertex 123.601 82.604 10
      vertex 161.355 84.31 10
    endloop
  endfacet
  facet normal 0 0 1
    outer loop
      vertex 62.564 78.877 10
      vertex 4.156 75.677 10
      vertex -0.612 69.625 10
    endloop
  endfacet
  facet normal 0 0 1
    outer loop
      vertex 123.601 82.604 10
      vertex 121.253 82.051 10
      vertex 161.355 84.31 10
    endloop
  endfacet
  facet normal 0 0 1
    outer loop
      vertex 2.275 74.813 10
      vertex -0.612 69.625 10
      vertex 4.156 75.677 10
    endloop
  endfacet
  facet normal 0 0 1
    outer loop
      vertex 0.762 73.401 10
      vertex -0.612 69.625 10
      vertex 2.275 74.813 10
    endloop
  endfacet
  facet normal 0 0 1
    outer loop
      vertex -0.246 71.614 10
      vertex -0.612 69.625 10
      vertex 0.762 73.401 10
    endloop
  endfacet
  facet normal 0 0 1
    outer loop
      vertex 139.847 93.024 10
      vertex 137.261 91.844 10
      vertex 147.249 94.17 10
    endloop
  endfacet
  facet normal 0 0 1
    outer loop
      vertex 134.672 90.317 10
      vertex 132.101 88.456 10
      vertex 154.079 92.171 10
    endloop
  endfacet
  facet normal 0 0 1
    outer loop
      vertex 121.253 82.051 10
      vertex 62.564 78.877 10
      vertex -0.612 69.625 10
    endloop
  endfacet
  facet normal -0.621787 -0.783187 0
    outer loop
      vertex 1.05 65.568 0
      vertex 2.826 64.158 0
      vertex 2.826 64.158 10
    endloop
  endfacet
  facet normal -0.621787 -0.783187 0
    outer loop
      vertex 1.05 65.568 10
      vertex 1.05 65.568 0
      vertex 2.826 64.158 10
    endloop
  endfacet
  facet normal -0.311551 -0.95023 0
    outer loop
      vertex 2.826 64.158 0
      vertex 4.961 63.458 0
      vertex 4.961 63.458 10
    endloop
  endfacet
  facet normal -0.311551 -0.95023 0
    outer loop
      vertex 2.826 64.158 10
      vertex 2.826 64.158 0
      vertex 4.961 63.458 10
    endloop
  endfacet
  facet normal -0.0526056 -0.998615 0
    outer loop
      vertex 4.961 63.458 0
      vertex 59.86 60.566 0
      vertex 59.86 60.566 10
    endloop
  endfacet
  facet normal -0.0526056 -0.998615 0
    outer loop
      vertex 4.961 63.458 10
      vertex 4.961 63.458 0
      vertex 59.86 60.566 10
    endloop
  endfacet
  facet normal -0.0553253 -0.998468 0
    outer loop
      vertex 59.86 60.566 0
      vertex 115.283 57.495 0
      vertex 115.283 57.495 10
    endloop
  endfacet
  facet normal -0.0553253 -0.998468 0
    outer loop
      vertex 59.86 60.566 10
      vertex 59.86 60.566 0
      vertex 115.283 57.495 10
    endloop
  endfacet
  facet normal -0.336868 -0.941552 0
    outer loop
      vertex 115.283 57.495 0
      vertex 118.31 56.412 0
      vertex 118.31 56.412 10
    endloop
  endfacet
  facet normal -0.336868 -0.941552 0
    outer loop
      vertex 115.283 57.495 10
      vertex 115.283 57.495 0
      vertex 118.31 56.412 10
    endloop
  endfacet
  facet normal -0.539751 -0.841825 0
    outer loop
      vertex 118.31 56.412 0
      vertex 121.016 54.677 0
      vertex 121.016 54.677 10
    endloop
  endfacet
  facet normal -0.539751 -0.841825 0
    outer loop
      vertex 118.31 56.412 10
      vertex 118.31 56.412 0
      vertex 121.016 54.677 10
    endloop
  endfacet
  facet normal -0.739888 -0.67273 0
    outer loop
      vertex 123.35 52.11 0
      vertex 123.35 52.11 10
      vertex 121.016 54.677 0
    endloop
  endfacet
  facet normal -0.739888 -0.67273 0
    outer loop
      vertex 121.016 54.677 0
      vertex 123.35 52.11 10
      vertex 121.016 54.677 10
    endloop
  endfacet
  facet normal -0.741557 -0.67089 0
    outer loop
      vertex 125.6 49.623 0
      vertex 125.6 49.623 10
      vertex 123.35 52.11 0
    endloop
  endfacet
  facet normal -0.741557 -0.67089 0
    outer loop
      vertex 123.35 52.11 0
      vertex 125.6 49.623 10
      vertex 123.35 52.11 10
    endloop
  endfacet
  facet normal -0.619675 -0.784858 0
    outer loop
      vertex 125.6 49.623 0
      vertex 128.047 47.691 0
      vertex 128.047 47.691 10
    endloop
  endfacet
  facet normal -0.619675 -0.784858 0
    outer loop
      vertex 125.6 49.623 10
      vertex 125.6 49.623 0
      vertex 128.047 47.691 10
    endloop
  endfacet
  facet normal -0.463478 -0.886109 0
    outer loop
      vertex 128.047 47.691 0
      vertex 130.737 46.284 0
      vertex 130.737 46.284 10
    endloop
  endfacet
  facet normal -0.463478 -0.886109 0
    outer loop
      vertex 128.047 47.691 10
      vertex 128.047 47.691 0
      vertex 130.737 46.284 10
    endloop
  endfacet
  facet normal -0.292439 -0.956284 0
    outer loop
      vertex 130.737 46.284 0
      vertex 133.716 45.373 0
      vertex 133.716 45.373 10
    endloop
  endfacet
  facet normal -0.292439 -0.956284 0
    outer loop
      vertex 130.737 46.284 10
      vertex 130.737 46.284 0
      vertex 133.716 45.373 10
    endloop
  endfacet
  facet normal -0.119051 -0.992888 0
    outer loop
      vertex 133.716 45.373 0
      vertex 136.218 45.073 0
      vertex 136.218 45.073 10
    endloop
  endfacet
  facet normal -0.119051 -0.992888 0
    outer loop
      vertex 133.716 45.373 10
      vertex 133.716 45.373 0
      vertex 136.218 45.073 10
    endloop
  endfacet
  facet normal 0.0438473 -0.999038 0
    outer loop
      vertex 136.218 45.073 0
      vertex 138.861 45.189 0
      vertex 138.861 45.189 10
    endloop
  endfacet
  facet normal 0.0438473 -0.999038 0
    outer loop
      vertex 136.218 45.073 10
      vertex 136.218 45.073 0
      vertex 138.861 45.189 10
    endloop
  endfacet
  facet normal 0.191008 -0.981589 0
    outer loop
      vertex 138.861 45.189 0
      vertex 141.523 45.707 0
      vertex 141.523 45.707 10
    endloop
  endfacet
  facet normal 0.191008 -0.981589 0
    outer loop
      vertex 138.861 45.189 10
      vertex 138.861 45.189 0
      vertex 141.523 45.707 10
    endloop
  endfacet
  facet normal 0.333051 -0.942909 0
    outer loop
      vertex 141.523 45.707 0
      vertex 144.088 46.613 0
      vertex 144.088 46.613 10
    endloop
  endfacet
  facet normal 0.333051 -0.942909 0
    outer loop
      vertex 141.523 45.707 10
      vertex 141.523 45.707 0
      vertex 144.088 46.613 10
    endloop
  endfacet
  facet normal 0.479529 -0.877526 0
    outer loop
      vertex 144.088 46.613 0
      vertex 148.813 49.195 0
      vertex 148.813 49.195 10
    endloop
  endfacet
  facet normal 0.479529 -0.877526 0
    outer loop
      vertex 144.088 46.613 10
      vertex 144.088 46.613 0
      vertex 148.813 49.195 10
    endloop
  endfacet
  facet normal 0.581748 -0.813369 0
    outer loop
      vertex 148.813 49.195 0
      vertex 150.474 50.383 0
      vertex 150.474 50.383 10
    endloop
  endfacet
  facet normal 0.581748 -0.813369 0
    outer loop
      vertex 148.813 49.195 10
      vertex 148.813 49.195 0
      vertex 150.474 50.383 10
    endloop
  endfacet
  facet normal 0.807257 -0.5902 0
    outer loop
      vertex 150.474 50.383 0
      vertex 150.958 51.045 0
      vertex 150.958 51.045 10
    endloop
  endfacet
  facet normal 0.807257 -0.5902 0
    outer loop
      vertex 150.474 50.383 10
      vertex 150.474 50.383 0
      vertex 150.958 51.045 10
    endloop
  endfacet
  facet normal 0.505902 0.862591 0
    outer loop
      vertex 143.333 55.517 10
      vertex 150.958 51.045 10
      vertex 143.333 55.517 0
    endloop
  endfacet
  facet normal 0.505902 0.862591 0
    outer loop
      vertex 143.333 55.517 0
      vertex 150.958 51.045 10
      vertex 150.958 51.045 0
    endloop
  endfacet
  facet normal 0.500667 0.86564 0
    outer loop
      vertex 135.85 59.845 10
      vertex 143.333 55.517 10
      vertex 135.85 59.845 0
    endloop
  endfacet
  facet normal 0.500667 0.86564 0
    outer loop
      vertex 135.85 59.845 0
      vertex 143.333 55.517 10
      vertex 143.333 55.517 0
    endloop
  endfacet
  facet normal 0.999081 -0.0428575 0
    outer loop
      vertex 135.85 59.845 0
      vertex 136.405 72.783 0
      vertex 136.405 72.783 10
    endloop
  endfacet
  facet normal 0.999081 -0.0428575 0
    outer loop
      vertex 135.85 59.845 10
      vertex 135.85 59.845 0
      vertex 136.405 72.783 10
    endloop
  endfacet
  facet normal 0.531951 -0.846775 0
    outer loop
      vertex 136.405 72.783 0
      vertex 141.822 76.186 0
      vertex 141.822 76.186 10
    endloop
  endfacet
  facet normal 0.531951 -0.846775 0
    outer loop
      vertex 136.405 72.783 10
      vertex 136.405 72.783 0
      vertex 141.822 76.186 10
    endloop
  endfacet
  facet normal 0.520211 -0.854038 0
    outer loop
      vertex 141.822 76.186 0
      vertex 146.537 79.058 0
      vertex 146.537 79.058 10
    endloop
  endfacet
  facet normal 0.520211 -0.854038 0
    outer loop
      vertex 141.822 76.186 10
      vertex 141.822 76.186 0
      vertex 146.537 79.058 10
    endloop
  endfacet
  facet normal 0.352874 -0.935671 0
    outer loop
      vertex 146.537 79.058 0
      vertex 147.298 79.345 0
      vertex 147.298 79.345 10
    endloop
  endfacet
  facet normal 0.352874 -0.935671 0
    outer loop
      vertex 146.537 79.058 10
      vertex 146.537 79.058 0
      vertex 147.298 79.345 10
    endloop
  endfacet
  facet normal -0.279533 -0.960136 0
    outer loop
      vertex 147.298 79.345 0
      vertex 147.693 79.23 0
      vertex 147.693 79.23 10
    endloop
  endfacet
  facet normal -0.279533 -0.960136 0
    outer loop
      vertex 147.298 79.345 10
      vertex 147.298 79.345 0
      vertex 147.693 79.23 10
    endloop
  endfacet
  facet normal -0.494867 -0.868969 0
    outer loop
      vertex 147.693 79.23 0
      vertex 162.559 70.764 0
      vertex 162.559 70.764 10
    endloop
  endfacet
  facet normal -0.494867 -0.868969 0
    outer loop
      vertex 147.693 79.23 10
      vertex 147.693 79.23 0
      vertex 162.559 70.764 10
    endloop
  endfacet
  facet normal 0.989314 -0.145799 0
    outer loop
      vertex 162.559 70.764 0
      vertex 162.862 72.82 0
      vertex 162.862 72.82 10
    endloop
  endfacet
  facet normal 0.989314 -0.145799 0
    outer loop
      vertex 162.559 70.764 10
      vertex 162.559 70.764 0
      vertex 162.862 72.82 10
    endloop
  endfacet
  facet normal 0.999661 -0.0260433 0
    outer loop
      vertex 162.862 72.82 0
      vertex 162.966 76.812 0
      vertex 162.966 76.812 10
    endloop
  endfacet
  facet normal 0.999661 -0.0260433 0
    outer loop
      vertex 162.862 72.82 10
      vertex 162.862 72.82 0
      vertex 162.966 76.812 10
    endloop
  endfacet
  facet normal 0.994259 0.107002 0
    outer loop
      vertex 162.555 80.631 0
      vertex 162.555 80.631 10
      vertex 162.966 76.812 10
    endloop
  endfacet
  facet normal 0.994259 0.107002 0
    outer loop
      vertex 162.966 76.812 0
      vertex 162.555 80.631 0
      vertex 162.966 76.812 10
    endloop
  endfacet
  facet normal 0.950705 0.310097 0
    outer loop
      vertex 161.355 84.31 0
      vertex 161.355 84.31 10
      vertex 162.555 80.631 10
    endloop
  endfacet
  facet normal 0.950705 0.310097 0
    outer loop
      vertex 162.555 80.631 0
      vertex 161.355 84.31 0
      vertex 162.555 80.631 10
    endloop
  endfacet
  facet normal 0.860927 0.508729 0
    outer loop
      vertex 159.47 87.5 0
      vertex 159.47 87.5 10
      vertex 161.355 84.31 10
    endloop
  endfacet
  facet normal 0.860927 0.508729 0
    outer loop
      vertex 161.355 84.31 0
      vertex 159.47 87.5 0
      vertex 161.355 84.31 10
    endloop
  endfacet
  facet normal 0.731203 0.68216 0
    outer loop
      vertex 157.008 90.139 0
      vertex 157.008 90.139 10
      vertex 159.47 87.5 10
    endloop
  endfacet
  facet normal 0.731203 0.68216 0
    outer loop
      vertex 159.47 87.5 0
      vertex 157.008 90.139 0
      vertex 159.47 87.5 10
    endloop
  endfacet
  facet normal 0.570012 0.821636 0
    outer loop
      vertex 154.079 92.171 10
      vertex 157.008 90.139 10
      vertex 154.079 92.171 0
    endloop
  endfacet
  facet normal 0.570012 0.821636 0
    outer loop
      vertex 154.079 92.171 0
      vertex 157.008 90.139 10
      vertex 157.008 90.139 0
    endloop
  endfacet
  facet normal 0.38274 0.923856 0
    outer loop
      vertex 150.789 93.534 10
      vertex 154.079 92.171 10
      vertex 150.789 93.534 0
    endloop
  endfacet
  facet normal 0.38274 0.923856 0
    outer loop
      vertex 150.789 93.534 0
      vertex 154.079 92.171 10
      vertex 154.079 92.171 0
    endloop
  endfacet
  facet normal 0.17683 0.984241 0
    outer loop
      vertex 147.249 94.17 10
      vertex 150.789 93.534 10
      vertex 147.249 94.17 0
    endloop
  endfacet
  facet normal 0.17683 0.984241 0
    outer loop
      vertex 147.249 94.17 0
      vertex 150.789 93.534 10
      vertex 150.789 93.534 0
    endloop
  endfacet
  facet normal -0.0406829 0.999172 0
    outer loop
      vertex 143.565 94.02 10
      vertex 147.249 94.17 10
      vertex 143.565 94.02 0
    endloop
  endfacet
  facet normal -0.0406829 0.999172 0
    outer loop
      vertex 143.565 94.02 0
      vertex 147.249 94.17 10
      vertex 147.249 94.17 0
    endloop
  endfacet
  facet normal -0.258762 0.965941 0
    outer loop
      vertex 139.847 93.024 10
      vertex 143.565 94.02 10
      vertex 139.847 93.024 0
    endloop
  endfacet
  facet normal -0.258762 0.965941 0
    outer loop
      vertex 139.847 93.024 0
      vertex 143.565 94.02 10
      vertex 143.565 94.02 0
    endloop
  endfacet
  facet normal -0.415128 0.909763 0
    outer loop
      vertex 137.261 91.844 10
      vertex 139.847 93.024 10
      vertex 137.261 91.844 0
    endloop
  endfacet
  facet normal -0.415128 0.909763 0
    outer loop
      vertex 137.261 91.844 0
      vertex 139.847 93.024 10
      vertex 139.847 93.024 0
    endloop
  endfacet
  facet normal -0.508023 0.861344 0
    outer loop
      vertex 134.672 90.317 10
      vertex 137.261 91.844 10
      vertex 134.672 90.317 0
    endloop
  endfacet
  facet normal -0.508023 0.861344 0
    outer loop
      vertex 134.672 90.317 0
      vertex 137.261 91.844 10
      vertex 137.261 91.844 0
    endloop
  endfacet
  facet normal -0.586353 0.810056 0
    outer loop
      vertex 132.101 88.456 10
      vertex 134.672 90.317 10
      vertex 132.101 88.456 0
    endloop
  endfacet
  facet normal -0.586353 0.810056 0
    outer loop
      vertex 132.101 88.456 0
      vertex 134.672 90.317 10
      vertex 134.672 90.317 0
    endloop
  endfacet
  facet normal -0.652442 0.757839 0
    outer loop
      vertex 129.57 86.277 10
      vertex 132.101 88.456 10
      vertex 129.57 86.277 0
    endloop
  endfacet
  facet normal -0.652442 0.757839 0
    outer loop
      vertex 129.57 86.277 0
      vertex 132.101 88.456 10
      vertex 132.101 88.456 0
    endloop
  endfacet
  facet normal -0.641148 0.767417 0
    outer loop
      vertex 127.613 84.642 10
      vertex 129.57 86.277 10
      vertex 127.613 84.642 0
    endloop
  endfacet
  facet normal -0.641148 0.767417 0
    outer loop
      vertex 127.613 84.642 0
      vertex 129.57 86.277 10
      vertex 129.57 86.277 0
    endloop
  endfacet
  facet normal -0.525857 0.850573 0
    outer loop
      vertex 125.672 83.442 10
      vertex 127.613 84.642 10
      vertex 125.672 83.442 0
    endloop
  endfacet
  facet normal -0.525857 0.850573 0
    outer loop
      vertex 125.672 83.442 0
      vertex 127.613 84.642 10
      vertex 127.613 84.642 0
    endloop
  endfacet
  facet normal -0.375092 0.926988 0
    outer loop
      vertex 123.601 82.604 10
      vertex 125.672 83.442 10
      vertex 123.601 82.604 0
    endloop
  endfacet
  facet normal -0.375092 0.926988 0
    outer loop
      vertex 123.601 82.604 0
      vertex 125.672 83.442 10
      vertex 125.672 83.442 0
    endloop
  endfacet
  facet normal -0.229247 0.973368 0
    outer loop
      vertex 121.253 82.051 10
      vertex 123.601 82.604 10
      vertex 121.253 82.051 0
    endloop
  endfacet
  facet normal -0.229247 0.973368 0
    outer loop
      vertex 121.253 82.051 0
      vertex 123.601 82.604 10
      vertex 123.601 82.604 0
    endloop
  endfacet
  facet normal -0.0540028 0.998541 0
    outer loop
      vertex 62.564 78.877 10
      vertex 121.253 82.051 10
      vertex 62.564 78.877 0
    endloop
  endfacet
  facet normal -0.0540028 0.998541 0
    outer loop
      vertex 62.564 78.877 0
      vertex 121.253 82.051 10
      vertex 121.253 82.051 0
    endloop
  endfacet
  facet normal -0.054705 0.998503 0
    outer loop
      vertex 4.156 75.677 10
      vertex 62.564 78.877 10
      vertex 4.156 75.677 0
    endloop
  endfacet
  facet normal -0.054705 0.998503 0
    outer loop
      vertex 4.156 75.677 0
      vertex 62.564 78.877 10
      vertex 62.564 78.877 0
    endloop
  endfacet
  facet normal -0.417403 0.908721 0
    outer loop
      vertex 2.275 74.813 10
      vertex 4.156 75.677 10
      vertex 2.275 74.813 0
    endloop
  endfacet
  facet normal -0.417403 0.908721 0
    outer loop
      vertex 2.275 74.813 0
      vertex 4.156 75.677 10
      vertex 4.156 75.677 0
    endloop
  endfacet
  facet normal -0.682284 0.731087 0
    outer loop
      vertex 0.762 73.401 10
      vertex 2.275 74.813 10
      vertex 0.762 73.401 0
    endloop
  endfacet
  facet normal -0.682284 0.731087 0
    outer loop
      vertex 0.762 73.401 0
      vertex 2.275 74.813 10
      vertex 2.275 74.813 0
    endloop
  endfacet
  facet normal -0.870989 0.491302 0
    outer loop
      vertex -0.246 71.614 10
      vertex 0.762 73.401 10
      vertex -0.246 71.614 0
    endloop
  endfacet
  facet normal -0.870989 0.491302 0
    outer loop
      vertex -0.246 71.614 0
      vertex 0.762 73.401 10
      vertex 0.762 73.401 0
    endloop
  endfacet
endsolid OpenSCAD_Model
